<svg width="100" height="100" viewBox="0 0 100 100" fill="none" xmlns="http://www.w3.org/2000/svg">
<path d="M69.0742 37.6829C69.3517 37.6616 69.63 37.7155 69.8789 37.8401C70.165 37.9833 70.3991 38.2126 70.5488 38.4954L70.6582 38.7024C70.7385 38.8541 70.7867 39.0215 70.7998 39.1926C70.82 39.4571 70.7559 39.721 70.6162 39.9465L68.9102 42.7004C68.8751 42.757 68.9159 42.8303 68.9824 42.8303C69.0027 42.8303 69.0227 42.823 69.0381 42.8098L72.0625 40.2151L72.7539 39.6555C73.0101 39.4483 73.2882 39.2696 73.583 39.1223L73.6855 39.0715C74.0041 38.9124 74.344 38.7992 74.6943 38.7356L74.9434 38.6897C75.1755 38.6476 75.413 38.6436 75.6465 38.677C76.1167 38.7443 76.5529 38.9621 76.8887 39.2981L77.0049 39.4153C77.0949 39.5053 77.1795 39.6035 77.2559 39.7053C77.5787 40.1362 77.7772 40.6567 77.8184 41.1936L77.8242 41.2639C77.8466 41.5562 77.8254 41.8508 77.7617 42.137C77.6893 42.4622 77.5622 42.7727 77.3867 43.0559L77.3438 43.1262C77.107 43.5084 76.7976 43.8408 76.4336 44.1047L74.3682 45.6018L73.8486 45.9573C73.5672 46.1498 73.4096 46.4777 73.4355 46.8176C73.4415 46.8953 73.4569 46.9723 73.4814 47.0461L74.0596 48.7815L74.8281 51.0901L74.9375 51.6633C75.171 52.8848 75.2723 54.1283 75.2383 55.3713C75.2033 56.6507 75.0255 57.9222 74.709 59.1624L74.5176 59.9124C74.0393 61.2093 73.4562 62.4652 72.7734 63.6672L72.7217 63.7581L72.2012 64.509C71.9392 64.8872 71.5615 65.1703 71.125 65.3157L70.9717 65.3665C70.7067 65.4547 70.422 65.4691 70.1494 65.4084C69.8209 65.3352 69.5249 65.1566 69.3076 64.8997L69.209 64.7825C69.1228 64.6805 69.0466 64.5704 68.9824 64.4534L68.6191 63.7903C68.3452 63.2904 68.1176 62.7666 67.9375 62.2258L67.6445 61.3459L66.9775 59.3459L66.3379 57.4211L65.5947 55.1907L65.3535 54.467C65.2413 54.1303 65.0792 53.8125 64.873 53.5237C64.2582 52.6623 63.2926 52.1186 62.2373 52.0403L52.291 51.303C51.3404 51.2326 50.3854 51.3686 49.4922 51.7014C48.674 52.0063 47.9241 52.4705 47.2861 53.0667L39.9678 59.9045C39.7166 60.1393 39.5093 60.4174 39.3555 60.7249C39.1706 61.0944 39.0672 61.4995 39.0518 61.9124L39.041 62.1829C39.0289 62.5067 39.0557 62.8308 39.1191 63.1487L39.2793 63.9524L40.0225 66.1838L40.8164 68.0569L41.4824 70.0569L42.0459 71.7502L42.3877 73.2024C42.433 73.3954 42.4502 73.5943 42.4385 73.7922L42.4268 73.9963C42.4124 74.2381 42.3313 74.4711 42.1934 74.6702L42.001 74.9475C41.963 75.0024 41.908 75.0436 41.8447 75.0647C41.8076 75.077 41.7685 75.0826 41.7295 75.0803L40.917 75.0325L40.793 75.0217C40.0583 74.9603 39.3352 74.8002 38.6436 74.5452C38.0414 74.3231 37.4675 74.0303 36.9336 73.6741L35.6396 72.8108C34.9883 72.3762 34.3745 71.887 33.8066 71.3479C33.045 70.6248 32.3693 69.8161 31.792 68.9387L31.2764 68.1555L31.2656 68.135C30.59 66.7826 30.0118 65.3838 29.5342 63.9495L28.9189 62.1028L28.6924 61.4211C28.6099 61.1739 28.4087 60.984 28.1572 60.9153C28.051 60.8863 27.9398 60.8806 27.8311 60.8977L26.0469 61.179L24.5596 61.3323L23.8965 61.3313C23.6556 61.3312 23.416 61.299 23.1836 61.2356C22.676 61.097 22.2196 60.8136 21.8701 60.4202L21.8213 60.3665C21.6642 60.1896 21.5286 59.9945 21.418 59.7854L21.3662 59.6868C21.2056 59.3832 21.0964 59.0543 21.043 58.7151L21.041 58.7014C20.9942 58.4045 20.9916 58.1015 21.0342 57.804L21.0361 57.7883C21.0602 57.6202 21.0996 57.4544 21.1533 57.2932L21.1592 57.2756C21.2715 56.939 21.4486 56.6271 21.6797 56.3577L21.7754 56.2463C21.8881 56.1149 22.0199 56.0004 22.166 55.9075C22.3922 55.7637 22.6487 55.6743 22.915 55.6448L24.8174 55.4338L25.6924 55.385C26.1817 55.358 26.5112 54.8734 26.3564 54.4084C26.2207 54.0007 26.1522 53.5735 26.1523 53.1438V52.7668L26.126 52.427C26.1099 52.2166 26.1731 52.0076 26.3027 51.8411C26.4056 51.709 26.5453 51.6098 26.7041 51.5569L67.7744 37.8821C68.0337 37.7958 68.3027 37.7418 68.5752 37.7209L69.0742 37.6829ZM51.9961 65.0784C52.5765 64.8851 52.8671 64.7882 53.1074 64.9084C53.3476 65.0288 53.4445 65.3194 53.6377 65.8997L54.1494 67.4387C54.3426 68.0188 54.4395 68.3088 54.3193 68.5491C54.1991 68.7894 53.9085 68.8861 53.3281 69.0793L51.79 69.592C51.2097 69.7853 50.919 69.8812 50.6787 69.761C50.4386 69.6407 50.3416 69.3509 50.1484 68.7708L49.6357 67.2317C49.4425 66.6514 49.3465 66.3607 49.4668 66.1204C49.5872 65.8804 49.8773 65.7841 50.457 65.5911L51.9961 65.0784ZM57.8447 63.1311C58.4251 62.9379 58.7157 62.8409 58.9561 62.9612C59.1962 63.0815 59.2922 63.3722 59.4854 63.9524L59.998 65.4915C60.1912 66.0715 60.288 66.3616 60.168 66.6018C60.0477 66.8421 59.7571 66.9388 59.1768 67.1321L57.6377 67.6448C57.0578 67.8379 56.7676 67.9348 56.5273 67.8147C56.287 67.6944 56.1903 67.4038 55.9971 66.8235L55.4844 65.2844C55.2912 64.7043 55.1953 64.4143 55.3154 64.1741C55.4357 63.9338 55.7255 63.837 56.3057 63.6438L57.8447 63.1311ZM50.0488 59.2307C50.6292 59.0375 50.9198 58.9405 51.1602 59.0608C51.4004 59.1811 51.4972 59.4717 51.6904 60.052L52.2021 61.5901C52.3954 62.1704 52.4923 62.4611 52.3721 62.7014C52.2518 62.9416 51.9619 63.0386 51.3818 63.2317L49.8428 63.7444C49.2624 63.9376 48.9718 64.0336 48.7314 63.9133C48.4913 63.793 48.3943 63.5031 48.2012 62.9231L47.6895 61.384C47.4962 60.8037 47.3993 60.513 47.5195 60.2727C47.6398 60.0326 47.9298 59.9355 48.5098 59.7424L50.0488 59.2307ZM55.8975 57.2834C56.4778 57.0902 56.7685 56.9933 57.0088 57.1135C57.249 57.2338 57.3459 57.5245 57.5391 58.1047L58.0508 59.6438C58.2439 60.2239 58.3409 60.5139 58.2207 60.7542C58.1004 60.9945 57.8099 61.0912 57.2295 61.2844L55.6914 61.7971C55.111 61.9904 54.8204 62.0863 54.5801 61.9661C54.3399 61.8458 54.243 61.5559 54.0498 60.9758L53.5371 59.4368C53.3439 58.8564 53.2479 58.5658 53.3682 58.3254C53.4885 58.0854 53.7785 57.9883 54.3584 57.7952L55.8975 57.2834ZM58.1211 25.8137C59.0756 25.6792 60.0451 25.6805 60.999 25.8186C61.4753 25.8876 61.9464 25.9906 62.4082 26.1262L63.4404 26.4299C63.9279 26.5731 64.3949 26.7781 64.8301 27.0403L64.9248 27.0969C65.2774 27.3094 65.603 27.5641 65.8936 27.8557C66.1133 28.0763 66.3119 28.3172 66.4873 28.5745L66.6582 28.8245C66.8112 29.049 66.9321 29.2941 67.0176 29.552L67.0322 29.5959C67.1397 29.9205 67.1837 30.2625 67.1631 30.6038L67.1533 30.7756C67.1459 30.8972 67.1217 31.0176 67.083 31.1331C66.9562 31.5111 66.6732 31.8164 66.3057 31.9709L26.5371 48.6819L26.3184 48.7551C26.0557 48.8421 25.7806 48.8865 25.5039 48.886L25.3066 48.885C25.0365 48.8845 24.7697 48.8217 24.5283 48.7004C24.2327 48.5519 23.9861 48.3214 23.8164 48.0374L23.6309 47.7288C23.4184 47.3732 23.2831 46.9768 23.2324 46.5657L23.1855 46.1848C23.1335 45.7619 23.1382 45.3331 23.1992 44.9114L23.2158 44.7932C23.3154 44.1055 23.5403 43.441 23.8789 42.8342L24.2461 42.177C24.5171 41.6914 24.8292 41.2297 25.1787 40.7971L25.3154 40.6272C26.0018 39.7776 26.7984 39.0228 27.6836 38.3831L28.0283 38.134C28.6543 37.6816 29.3137 37.2764 30 36.9221L31.7412 36.0227L34.5645 34.7454L38.209 33.3674L41.1865 32.3811C41.2489 32.3604 41.2943 32.3065 41.3037 32.2415C41.3213 32.1202 41.211 32.0198 41.0918 32.0481L38.2334 32.7268C37.93 32.7989 37.6215 32.6264 37.5234 32.3303C37.5032 32.2692 37.4931 32.2052 37.4932 32.1409L37.4941 31.5149C37.4945 31.3145 37.5271 31.115 37.5908 30.925C37.6967 30.6095 37.8853 30.3278 38.1367 30.1096L39.3457 29.0618C39.89 28.6551 40.4957 28.3379 41.1406 28.1243L41.5527 27.9885L41.9854 27.8918C42.7494 27.7208 43.5403 27.7071 44.3096 27.8528L44.5381 27.8958C44.7021 27.9268 44.863 27.9725 45.0195 28.0305L45.2852 28.1282C45.5952 28.2431 45.8698 28.4369 46.083 28.6897L46.1123 28.7239C46.2503 28.8876 46.3555 29.0763 46.4229 29.2795C46.5057 29.5295 46.7834 29.6571 47.0273 29.5579L48.835 28.8225L52.582 27.2395L54.6367 26.5588C55.5229 26.2653 56.434 26.0515 57.3584 25.9211L58.1211 25.8137Z" fill="white"/>
</svg>
