<svg width="100" height="100" viewBox="0 0 100 100" fill="none" xmlns="http://www.w3.org/2000/svg">
<path d="M39.5635 28.3V34.0081H48.0273V34.0071H53.9082C56.9623 34.0071 59.7038 34.4765 62.1328 35.4143C66.6302 37.1459 68.8799 39.6232 68.8799 42.8459V72.6086L62.0254 75.8547H61.6641V73.9075C59.3553 74.725 56.89 75.134 54.2686 75.134C51.4548 75.134 48.8333 74.6647 46.4043 73.7268C41.9069 71.9471 39.6583 69.4698 39.6582 66.2952V56.5549C39.6582 53.3322 41.9069 50.8549 46.4043 49.1233C48.8333 48.1854 51.4548 47.7161 54.2686 47.7161C56.914 47.7161 59.3794 48.125 61.6641 48.9426V44.1086C61.6641 42.9061 60.9067 42.0038 59.3916 41.4026C57.9005 40.8013 56.0726 40.5012 53.9082 40.5012H48.2451V40.5032H39.5635V49.1848H33.0684V40.5032H24.3867V34.0081H33.0684V25.3264L39.5635 28.3ZM54.2686 54.2102C52.3448 54.2102 50.6254 54.5104 49.1104 55.1116C47.6192 55.7128 46.873 56.6151 46.873 57.8176V65.0325C46.8731 66.235 47.6192 67.1373 49.1104 67.7385C50.6254 68.3397 52.3448 68.6399 54.2686 68.6399C56.1925 68.6399 57.9005 68.3398 59.3916 67.7385C60.9067 67.1373 61.664 66.235 61.6641 65.0325V57.8176C61.6641 56.6151 60.9067 55.7128 59.3916 55.1116C57.9005 54.5103 56.1926 54.2102 54.2686 54.2102Z" fill="white"/>
</svg>
