<svg width="100" height="100" viewBox="0 0 100 100" fill="none" xmlns="http://www.w3.org/2000/svg">
<mask id="mask0_110_292" style="mask-type:luminance" maskUnits="userSpaceOnUse" x="10" y="25" width="81" height="50">
<path d="M90.9211 25H10V75H90.9211V25Z" fill="white"/>
</mask>
<g mask="url(#mask0_110_292)">
<path fill-rule="evenodd" clip-rule="evenodd" d="M35.0409 25C37.8504 25 40.5515 25.4634 43.0722 26.318L42.7965 34.0712L42.7424 38.2551C40.5955 36.9414 38.0711 36.1842 35.3699 36.1842C32.7215 36.1842 30.2431 36.912 28.1238 38.1786L20.1348 29.9281C24.2969 26.832 29.455 25 35.0409 25Z" fill="white"/>
<path fill-rule="evenodd" clip-rule="evenodd" d="M16.8645 32.7925L24.7516 40.9377C22.5322 43.4356 21.1842 46.7249 21.1842 50.3291C21.1842 53.2927 22.0957 56.0434 23.6534 58.3163L15.8808 66.1087C12.2114 61.7579 10 56.1373 10 50.0002C10 43.3326 12.6102 37.2747 16.8645 32.7925Z" fill="white"/>
<path fill-rule="evenodd" clip-rule="evenodd" d="M18.9746 69.1522C23.3195 72.8005 28.9238 74.9978 35.0412 74.9978C41.8003 74.9978 47.9329 72.3155 52.4326 67.9572L49.394 65.0084L45.0728 60.6191C42.5401 63.0075 39.1261 64.4714 35.3701 64.4714C32.0784 64.4714 29.0493 63.347 26.646 61.4614L18.9746 69.1522Z" fill="white"/>
<path d="M27.7852 50.1419C27.7852 49.1226 27.9939 48.22 28.4115 47.434C28.8413 46.648 29.4185 46.0401 30.1431 45.6103C30.8799 45.1682 31.6904 44.9471 32.5746 44.9471C33.3729 44.9471 34.0667 45.1068 34.6562 45.4261C35.258 45.7331 35.7369 46.12 36.0931 46.5866V45.1129H38.2115V55.2629H36.0931V53.7524C35.7369 54.2313 35.2518 54.6305 34.6378 54.9498C34.0238 55.269 33.3238 55.4287 32.5378 55.4287C31.6659 55.4287 30.8676 55.2077 30.1431 54.7656C29.4185 54.3111 28.8413 53.6848 28.4115 52.8866C27.9939 52.0761 27.7852 51.1611 27.7852 50.1419ZM36.0931 50.1787C36.0931 49.4787 35.9457 48.8708 35.6509 48.355C35.3685 47.8392 34.9939 47.4463 34.5273 47.1761C34.0606 46.9059 33.5571 46.7708 33.0167 46.7708C32.4764 46.7708 31.9729 46.9059 31.5062 47.1761C31.0396 47.434 30.6588 47.8208 30.3641 48.3366C30.0817 48.8401 29.9404 49.4419 29.9404 50.1419C29.9404 50.8419 30.0817 51.4559 30.3641 51.984C30.6588 52.5121 31.0396 52.9173 31.5062 53.1998C31.9852 53.47 32.4886 53.605 33.0167 53.605C33.5571 53.605 34.0606 53.47 34.5273 53.1998C34.9939 52.9296 35.3685 52.5366 35.6509 52.0208C35.9457 51.4927 36.0931 50.8787 36.0931 50.1787ZM43.8066 46.605C44.1627 46.1384 44.6478 45.7454 45.2619 45.4261C45.8759 45.1068 46.5698 44.9471 47.3434 44.9471C48.2277 44.9471 49.032 45.1682 49.7566 45.6103C50.4934 46.0401 51.0706 46.648 51.4882 47.434C51.9057 48.22 52.1145 49.1226 52.1145 50.1419C52.1145 51.1611 51.9057 52.0761 51.4882 52.8866C51.0706 53.6848 50.4934 54.3111 49.7566 54.7656C49.032 55.2077 48.2277 55.4287 47.3434 55.4287C46.5698 55.4287 45.882 55.2752 45.2803 54.9682C44.6785 54.6489 44.1873 54.2559 43.8066 53.7892V60.0892H41.7066V45.1129H43.8066V46.605ZM49.9777 50.1419C49.9777 49.4419 49.8303 48.8401 49.5356 48.3366C49.2531 47.8208 48.8724 47.434 48.3934 47.1761C47.9267 46.9059 47.4232 46.7708 46.8829 46.7708C46.3548 46.7708 45.8513 46.9059 45.3724 47.1761C44.9057 47.4463 44.525 47.8392 44.2303 48.355C43.9478 48.8708 43.8066 49.4787 43.8066 50.1787C43.8066 50.8787 43.9478 51.4927 44.2303 52.0208C44.525 52.5366 44.9057 52.9296 45.3724 53.1998C45.8513 53.47 46.3548 53.605 46.8829 53.605C47.4232 53.605 47.9267 53.47 48.3934 53.1998C48.8724 52.9173 49.2531 52.5121 49.5356 51.984C49.8303 51.4559 49.9777 50.8419 49.9777 50.1419ZM57.028 42.4603V55.2629H54.928V42.4603H57.028ZM62.9719 46.8261V52.4445C62.9719 52.8252 63.0579 53.1015 63.2298 53.2735C63.414 53.4331 63.7211 53.5129 64.1509 53.5129H65.4404V55.2629H63.7825C62.8369 55.2629 62.1123 55.0419 61.6088 54.5998C61.1053 54.1577 60.8535 53.4392 60.8535 52.4445V46.8261H59.6561V45.1129H60.8535V42.5892H62.9719V45.1129H65.4404V46.8261H62.9719ZM75.8312 52.6471H70.4706L69.5496 55.2629H67.3575L71.9443 42.4419H74.3759L78.9628 55.2629H76.7523L75.8312 52.6471ZM75.2417 50.934L73.1601 44.984L71.0601 50.934H75.2417ZM83.7937 41.6313V55.2629H81.6937V41.6313H83.7937ZM89.3878 41.6313V55.2629H87.2878V41.6313H89.3878Z" fill="white"/>
</g>
</svg>
