<svg width="100" height="100" viewBox="0 0 100 100" fill="none" xmlns="http://www.w3.org/2000/svg">
<g clip-path="url(#clip0_110_133)">
<path d="M5.06123 47.4485C5.87367 47.4485 6.53366 48.1025 6.53366 48.9054V51.0257C6.53366 51.8296 5.87272 52.4827 5.06123 52.4827H3.54051C2.72807 52.4827 2.06809 51.8287 2.06809 51.0257V48.9054C2.06809 48.1015 2.72902 47.4485 3.54051 47.4485H5.06123ZM5.06123 45.4041H3.54051C1.58611 45.4041 0.00195312 46.9716 0.00195312 48.9054V51.0257C0.00195312 52.9596 1.58611 54.5271 3.54051 54.5271H5.06123C7.01563 54.5271 8.59979 52.9596 8.59979 51.0257V48.9054C8.59979 46.9716 7.01563 45.4041 5.06123 45.4041Z" fill="white"/>
<path d="M20.4249 45.7207V50.9742C20.4249 51.5326 20.3482 52.0151 20.1938 52.4218C20.0395 52.8275 19.8217 53.1573 19.5528 53.4243C19.2829 53.6913 18.9629 53.8806 18.5907 54.008C18.2186 54.1345 17.8209 54.1982 17.3976 54.1982C16.8844 54.1982 16.4356 54.1092 16.0511 53.919C15.6667 53.7288 15.3457 53.4496 15.1023 53.0814H15.0768C14.5768 53.83 13.807 54.2104 12.7673 54.2104C12.344 54.2104 11.9463 54.1467 11.5875 54.0202C11.2286 53.8937 10.9076 53.7026 10.6377 53.4365C10.3679 53.1694 10.1501 52.8396 9.99667 52.4339C9.84232 52.0282 9.76562 51.5457 9.76562 50.9873V45.7329H11.8431V50.9873C11.8431 51.4698 11.9454 51.8127 12.1509 52.0029C12.3563 52.1931 12.6253 52.2953 12.9463 52.2953C13.2673 52.2953 13.5106 52.1931 13.7293 52.0029C13.9471 51.8127 14.0503 51.4698 14.0503 50.9873V45.7329H16.1278V50.9873C16.1278 51.4698 16.2301 51.8127 16.4488 52.0029C16.6666 52.1931 16.9232 52.2953 17.231 52.2953C17.5387 52.2953 17.8076 52.1931 18.0141 52.0029C18.2186 51.8127 18.3218 51.4698 18.3218 50.9873V45.7329L20.4249 45.7207Z" fill="white"/>
<path d="M26.844 49.0595C26.844 48.5516 26.7162 48.1581 26.4719 47.8789C26.2276 47.5997 25.8431 47.4601 25.3309 47.4601C24.8186 47.4601 24.4332 47.5997 24.1899 47.8789C23.9456 48.1581 23.8177 48.5516 23.8177 49.0595V54.0337H21.7402V49.0595C21.7402 48.5263 21.8179 48.0438 21.9713 47.6119C22.1256 47.1809 22.3557 46.8127 22.6644 46.5082C22.9731 46.2037 23.3443 45.975 23.7931 45.8111C24.2419 45.6462 24.7552 45.5693 25.3328 45.5693C25.9104 45.5693 26.4226 45.6452 26.8715 45.8111C27.3203 45.976 27.6924 46.2046 28.0002 46.5082C28.3079 46.8127 28.539 47.1809 28.6924 47.6119C28.8458 48.0429 28.9234 48.5263 28.9234 49.0595V54.0337H26.8459V49.0595H26.844Z" fill="white"/>
<path d="M32.2321 45.7339H36.3294V47.6378H32.5645C32.3704 47.6378 32.2123 47.7933 32.2123 47.9863V48.9963H35.5851V50.6463H32.2123V51.7828C32.2123 51.9749 32.3694 52.1314 32.5645 52.1314H36.3294V54.0353H32.2321C31.0741 54.0353 30.1348 53.1058 30.1348 51.9599V47.8102C30.1348 46.6643 31.0741 45.7348 32.2321 45.7348V45.7339Z" fill="white"/>
<path d="M40.5019 51.407H39.6166V54.0089H37.5391V45.7085H40.9375C41.4886 45.7085 41.9639 45.7844 42.3616 45.9249C42.7593 46.0645 43.0926 46.2679 43.3625 46.5208C43.6314 46.7747 43.8236 47.0793 43.9524 47.4222C44.0812 47.7651 44.1446 48.1455 44.1446 48.5643C44.1446 49.148 44.0159 49.668 43.7602 50.1253C43.5036 50.5816 43.1059 50.9245 42.5671 51.1409V51.1662L44.4401 54.0342H41.9772L40.5019 51.407ZM40.963 49.491C41.3863 49.491 41.6685 49.4019 41.8228 49.2239C41.9772 49.0459 42.0539 48.8182 42.0539 48.5512C42.0539 48.2842 41.9772 48.0565 41.8228 47.8785C41.6685 47.7005 41.3873 47.6114 40.963 47.6114H39.6166V49.5022H40.963V49.49V49.491Z" fill="white"/>
<path d="M63.1264 52.8408H67.2511V54.0336H63.0042C61.9428 54.0336 61.082 53.1819 61.082 52.1316V47.6352C61.082 46.5848 61.9428 45.7332 63.0042 45.7332H67.2511V46.9259H63.1264C62.7202 46.9259 62.3906 47.2519 62.3906 47.6539V49.2102H66.5078V50.4029H62.3906V52.111C62.3906 52.5129 62.7202 52.839 63.1264 52.839V52.8408Z" fill="white"/>
<path d="M79.1791 52.8408H83.3038V54.0336H79.057C77.9955 54.0336 77.1348 53.1819 77.1348 52.1316V47.6352C77.1348 46.5848 77.9955 45.7332 79.057 45.7332H83.3038V46.9259H79.1791C78.7729 46.9259 78.4434 47.2519 78.4434 47.6539V49.2102H82.5605V50.4029H78.4434V52.111C78.4434 52.5129 78.7729 52.839 79.1791 52.839V52.8408Z" fill="white"/>
<path d="M74.3084 48.9958C74.3084 48.2977 74.1162 47.7524 73.744 47.358C73.3719 46.9645 72.8076 46.7621 72.0633 46.7621C71.319 46.7621 70.7812 46.9654 70.4081 47.358C70.036 47.7515 69.8438 48.2977 69.8438 48.9958V54.0206H68.5352V48.9958C68.5352 48.4758 68.6128 48.0054 68.7662 47.5866C68.9205 47.1678 69.1506 46.8127 69.4593 46.5082C69.7671 46.2037 70.1392 45.975 70.5748 45.8111C71.0104 45.6462 71.5113 45.5693 72.0756 45.5693C72.64 45.5693 73.1532 45.6452 73.5888 45.8111C74.0243 45.976 74.3965 46.2046 74.6919 46.5082C74.9873 46.8127 75.2174 47.1809 75.3718 47.5997C75.5261 48.0185 75.6028 48.4879 75.6028 49.0079V54.0337H74.2951L74.3084 48.9958Z" fill="white"/>
<path d="M91.6481 45.7207V50.7456C91.6481 51.2656 91.5705 51.7359 91.4171 52.1547C91.2628 52.5735 91.0327 52.9418 90.7372 53.2463C90.4418 53.5508 90.0706 53.7794 89.6341 53.9443C89.1985 54.1092 88.6976 54.186 88.1342 54.186C87.5708 54.186 87.0699 54.1092 86.6334 53.9443C86.1978 53.7794 85.8247 53.5508 85.5179 53.2594C85.2102 52.9671 84.9791 52.612 84.8248 52.181C84.6714 51.75 84.5938 51.2796 84.5938 50.7596V45.7338H85.9024V50.7596C85.9024 51.4576 86.0823 52.0029 86.4535 52.3965C86.8256 52.79 87.3767 52.9933 88.1209 52.9933C88.8652 52.9933 89.4163 52.79 89.7884 52.3965C90.1606 52.0029 90.3395 51.4576 90.3395 50.7596V45.7338L91.6481 45.7216V45.7207Z" fill="white"/>
<path d="M51.898 47.3707C51.7824 47.0409 51.6025 46.7486 51.3592 46.5078C51.1149 46.267 50.7948 46.0768 50.4094 45.9372C50.025 45.7976 49.5629 45.7339 49.0374 45.7339H45.5234V54.0343H46.8311V46.9276H49.0629C49.6917 46.9276 50.1273 47.0672 50.3839 47.3586C50.6405 47.6509 50.7683 48.0182 50.7683 48.4623C50.7683 48.9064 50.6395 49.2746 50.3839 49.566C50.1273 49.8583 49.6917 49.997 49.0629 49.997V50.0101H47.6V51.2029H49.0374C49.5629 51.2029 50.025 51.126 50.4094 50.9864C50.7939 50.8468 51.1149 50.6566 51.3592 50.4158C51.6025 50.1741 51.7824 49.8827 51.898 49.5529C52.0135 49.2231 52.0779 48.8549 52.0779 48.4613C52.0779 48.0678 52.0135 47.6996 51.898 47.3698V47.3707Z" fill="white"/>
<path d="M57.8948 50.975V50.9497C58.5491 50.7848 59.0235 50.4672 59.3312 50.0109C59.639 49.5537 59.7933 49.0084 59.7933 48.3862C59.7933 48.0058 59.7412 47.6498 59.6267 47.32C59.5111 46.9902 59.3312 46.711 59.0879 46.4702C58.8436 46.2284 58.5368 46.0392 58.1637 45.8986C57.7916 45.759 57.3427 45.6953 56.8305 45.6953H53.2266V53.9957H54.5342V46.889H56.8428C57.1382 46.889 57.3948 46.9274 57.5993 47.0033C57.8048 47.0801 57.9715 47.1813 58.0993 47.3078C58.2281 47.4352 58.318 47.587 58.3692 47.7641C58.4203 47.9421 58.4468 48.1323 58.4468 48.3478C58.4468 48.5633 58.4203 48.7535 58.3692 48.9315C58.318 49.1096 58.2281 49.2613 58.0993 49.3878C57.9715 49.5153 57.8048 49.6164 57.5993 49.6923C57.3948 49.7682 57.1382 49.8066 56.8305 49.8066L56.8428 49.8319H55.3031V51.0247H56.536L58.5368 54.0323H60.1011L57.8948 50.9731V50.975Z" fill="white"/>
<path d="M97.7952 50.975V50.9497C98.4495 50.7848 98.9239 50.4672 99.2316 50.0109C99.5393 49.5537 99.6937 49.0084 99.6937 48.3862C99.6937 48.0058 99.6416 47.6498 99.527 47.32C99.4115 46.9902 99.2316 46.711 98.9883 46.4702C98.744 46.2284 98.4372 46.0392 98.0641 45.8986C97.692 45.759 97.2431 45.6953 96.7308 45.6953H93.127V53.9957H94.4346V46.889H96.7432C97.0386 46.889 97.2952 46.9274 97.4997 47.0033C97.7052 47.0801 97.8719 47.1813 97.9997 47.3078C98.1285 47.4352 98.2184 47.587 98.2696 47.7641C98.3207 47.9421 98.3472 48.1323 98.3472 48.3478C98.3472 48.5633 98.3207 48.7535 98.2696 48.9315C98.2184 49.1096 98.1285 49.2613 97.9997 49.3878C97.8719 49.5153 97.7052 49.6164 97.4997 49.6923C97.2952 49.7682 97.0386 49.8066 96.7308 49.8066L96.7432 49.8319H95.2035V51.0247H96.4364L98.4372 54.0323H100.001L97.7952 50.9731V50.975Z" fill="white"/>
<path d="M66.9193 58.2167H65.6836V57.6611H68.7705V58.2167H67.5291V61.5251H66.9202V58.2167H66.9193Z" fill="white"/>
<path d="M72.1236 59.8414H69.9448V61.5251H69.3359V57.6611H69.9448V59.2858H72.1236V57.6611H72.7325V61.5251H72.1236V59.8414Z" fill="white"/>
<path d="M74.143 60.9702H76.4051V61.5258H73.5332V57.6619H76.4051V58.2175H74.143V59.2809H76.0595V59.8365H74.143V60.9712V60.9702Z" fill="white"/>
<path d="M81.4615 59.8414H79.2827V61.5251H78.6738V57.6611H79.2827V59.2858H81.4615V57.6611H82.0704V61.5251H81.4615V59.8414Z" fill="white"/>
<path d="M86.0778 57.6553V59.9948C86.0778 60.2375 86.0418 60.4558 85.9708 60.6507C85.8989 60.8456 85.7919 61.017 85.6546 61.1585C85.5173 61.3 85.344 61.4068 85.1413 61.4836C84.9378 61.5605 84.7048 61.5961 84.4425 61.5961C84.1802 61.5961 83.9464 61.5605 83.7437 61.4836C83.5401 61.4068 83.3678 61.3009 83.2239 61.1651C83.0809 61.0292 82.9739 60.8634 82.9019 60.6629C82.8309 60.4624 82.7949 60.2431 82.7949 60.0014V57.6618H83.4038V60.0014C83.4038 60.3265 83.4871 60.5804 83.6604 60.7631C83.8337 60.9468 84.0903 61.0414 84.4368 61.0414C84.7834 61.0414 85.04 60.9468 85.2124 60.7631C85.3856 60.5804 85.469 60.3265 85.469 60.0014V57.6618L86.0778 57.6562V57.6553Z" fill="white"/>
<path d="M88.832 58.7313C88.8263 58.5598 88.7543 58.4184 88.6227 58.3059C88.4911 58.1935 88.3065 58.141 88.0622 58.141C87.8179 58.141 87.62 58.2 87.4836 58.3181C87.3463 58.4362 87.28 58.5842 87.28 58.7613C87.28 58.9149 87.334 59.0274 87.441 59.0976C87.548 59.1679 87.6853 59.2213 87.8472 59.2569C88.0082 59.2925 88.1871 59.3281 88.3784 59.3572C88.5697 59.3862 88.7487 59.434 88.9096 59.5052C89.0706 59.5755 89.2079 59.6823 89.3158 59.8238C89.4228 59.9653 89.4768 60.1667 89.4768 60.4206C89.4768 60.6033 89.4408 60.7692 89.3689 60.9172C89.2979 61.0652 89.2022 61.1889 89.0763 61.2957C88.9513 61.4016 88.8017 61.485 88.6218 61.5384C88.4428 61.5918 88.2459 61.6208 88.0252 61.6208C87.8046 61.6208 87.6133 61.5909 87.44 61.5384C87.2668 61.485 87.1172 61.4082 86.9922 61.3079C86.8672 61.2076 86.7706 61.083 86.6996 60.9359C86.6276 60.7879 86.5926 60.623 86.5859 60.4394H87.1891C87.1948 60.6286 87.2668 60.7823 87.4097 60.8938C87.5527 61.0062 87.7563 61.0652 88.0243 61.0652C88.2922 61.0652 88.5081 61.0062 88.6511 60.8938C88.7941 60.7813 88.8661 60.6277 88.8661 60.4394C88.8661 60.3269 88.8358 60.2379 88.7704 60.1733C88.7051 60.1086 88.6208 60.0552 88.5205 60.014C88.4191 59.9727 88.2989 59.9428 88.1682 59.9193C88.0366 59.8959 87.8993 59.8725 87.762 59.8481C87.6247 59.8247 87.4874 59.7891 87.3558 59.7479C87.2241 59.7067 87.1048 59.6476 87.0035 59.5708C86.9022 59.494 86.8179 59.3937 86.7526 59.2691C86.6873 59.1454 86.657 58.9852 86.657 58.7903C86.657 58.6132 86.6863 58.453 86.7526 58.3059C86.8189 58.1588 86.9079 58.0342 87.0272 57.9274C87.1465 57.8215 87.2904 57.7381 87.4571 57.6791C87.6247 57.6201 87.8093 57.5901 88.0129 57.5901C88.2165 57.5901 88.3888 57.6201 88.5564 57.6725C88.724 57.7259 88.867 57.8028 88.9863 57.903C89.1056 58.0033 89.1956 58.1279 89.2609 58.2694C89.3263 58.4109 89.3622 58.5711 89.3679 58.7416H88.7894L88.831 58.7294L88.832 58.7313Z" fill="white"/>
<path d="M90.931 58.2167H89.6953V57.6611H92.7822V58.2167H91.5399V61.5251H90.931V58.2167Z" fill="white"/>
<path d="M93.3457 57.6611H93.9546V60.9695H96.1457V61.5251H93.3457V57.6611Z" fill="white"/>
<path d="M97.311 60.9702H99.5731V61.5258H96.7012V57.6619H99.5731V58.2175H97.311V59.2809H99.2275V59.8365H97.311V60.9712V60.9702Z" fill="white"/>
<path d="M48.8079 57.3775C49.3117 57.3775 49.7217 57.7832 49.7217 58.2817V59.5971C49.7217 60.0956 49.3117 60.5013 48.8079 60.5013H47.8648C47.3611 60.5013 46.9511 60.0956 46.9511 59.5971V58.2817C46.9511 57.7832 47.3611 57.3775 47.8648 57.3775H48.8079ZM48.8079 56.1089H47.8648C46.6528 56.1089 45.6699 57.0814 45.6699 58.2807V59.5962C45.6699 60.7955 46.6528 61.7681 47.8648 61.7681H48.8079C50.02 61.7681 51.0029 60.7955 51.0029 59.5962V58.2807C51.0029 57.0814 50.02 56.1089 48.8079 56.1089Z" fill="white"/>
<path d="M58.3388 56.3062V59.5658C58.3388 59.9125 58.2914 60.2114 58.1958 60.4634C58.1001 60.7154 57.9647 60.9197 57.7981 61.0855C57.6305 61.2514 57.4316 61.3685 57.2015 61.4481C56.9705 61.5268 56.7243 61.5662 56.4611 61.5662C56.1429 61.5662 55.8645 61.5109 55.6259 61.3928C55.3873 61.2748 55.1884 61.1015 55.0369 60.8728H55.0208C54.7102 61.3376 54.233 61.5737 53.5882 61.5737C53.3259 61.5737 53.0787 61.5343 52.8562 61.4556C52.6337 61.3769 52.4348 61.2589 52.2672 61.094C52.0996 60.9281 51.9652 60.7239 51.8695 60.4718C51.7739 60.2198 51.7266 59.9209 51.7266 59.5742V56.3146H53.0153V59.5742C53.0153 59.8731 53.0787 60.0858 53.2056 60.2039C53.3325 60.3219 53.5001 60.3847 53.699 60.3847C53.8978 60.3847 54.0493 60.3219 54.1847 60.2039C54.3201 60.0858 54.3836 59.8731 54.3836 59.5742V56.3146H55.6723V59.5742C55.6723 59.8731 55.7357 60.0858 55.8711 60.2039C56.0065 60.3219 56.1656 60.3847 56.356 60.3847C56.5463 60.3847 56.7139 60.3219 56.8417 60.2039C56.9686 60.0858 57.032 59.8731 57.032 59.5742V56.3146L58.3369 56.3071L58.3388 56.3062Z" fill="white"/>
<path d="M62.3197 58.3774C62.3197 58.0626 62.2402 57.8181 62.0887 57.6448C61.9372 57.4714 61.6986 57.3852 61.3804 57.3852C61.0622 57.3852 60.8236 57.4714 60.6721 57.6448C60.5206 57.8181 60.4411 58.0617 60.4411 58.3774V61.4638H59.1523V58.3774C59.1523 58.0467 59.2006 57.7469 59.2953 57.4799C59.391 57.2119 59.5339 56.9842 59.7252 56.7949C59.9165 56.6057 60.1466 56.4642 60.425 56.3621C60.7034 56.2599 61.0215 56.2122 61.3804 56.2122C61.7393 56.2122 62.0565 56.259 62.3349 56.3621C62.6133 56.4642 62.8443 56.6057 63.0356 56.7949C63.2259 56.9842 63.3698 57.2119 63.4655 57.4799C63.5611 57.7478 63.6084 58.0467 63.6084 58.3774V61.4638H62.3197V58.3774Z" fill="white"/>
<path d="M45.6699 62.9482H63.6118V63.5067L45.6699 65.4021V62.9482Z" fill="white"/>
<path d="M22.1007 34.9419C18.2298 34.9419 11.9405 35.4206 10.4084 43.8785H0.126953C0.126953 43.8785 0.367466 37.6543 4.58401 33.6648C8.65473 29.8149 14.5615 28 22.1007 28C29.6399 28 35.5467 29.8149 39.6174 33.6648C43.8349 37.6534 44.0744 43.8775 44.0744 43.8775H33.793C32.2609 35.4197 25.9716 34.9409 22.1007 34.9409V34.9419Z" fill="white"/>
<path d="M22.1007 64.6947C25.9716 64.6947 32.2609 64.2159 33.793 55.7581H44.0744C44.0744 55.7581 43.8349 61.9822 39.6174 65.9708C35.5467 69.8207 29.6408 71.6356 22.1007 71.6356C14.5605 71.6356 8.65473 69.8207 4.58401 65.9708C0.367466 61.9831 0.126953 55.7581 0.126953 55.7581H10.4084C11.9405 64.2159 18.2298 64.6947 22.1007 64.6947Z" fill="white"/>
</g>
<defs>
<clipPath id="clip0_110_133">
<rect width="100" height="100" fill="white"/>
</clipPath>
</defs>
</svg>
