<svg width="100" height="100" viewBox="0 0 100 100" fill="none" xmlns="http://www.w3.org/2000/svg">
<path d="M27.4688 37.1303C27.4688 44.3496 27.5395 46.237 27.7755 46.1662C27.917 46.0954 30.6773 45.2697 33.9095 44.326L39.7368 42.5802V40.2681V37.956L43.8182 37.9324C49.4568 37.9088 50.0466 37.9324 51.6509 38.3335C54.8358 39.1593 57.7613 41.5185 59.1061 44.444C60.7339 47.8885 60.4744 53.3619 58.5398 56.6413C57.0535 59.1893 53.7978 61.3362 50.6128 61.8552L48.985 62.1383L44.9271 67.0692L40.8692 72L46.7201 71.8584C52.9249 71.7169 54.5527 71.5046 58.0208 70.3721C64.2256 68.3432 69.1564 63.719 71.2325 58.0097C72.1526 55.4145 72.5301 53.126 72.5301 49.9882C72.5301 43.571 70.6663 38.8761 66.5376 34.771C63.3291 31.6332 59.979 29.8874 54.7179 28.7078C52.7597 28.2595 51.6273 28.2123 40.0435 28.118L27.4688 28V37.1303Z" fill="white"/>
<path d="M35.0185 46.8268C34.2164 47.1571 34.0748 47.6997 34.0748 50.6252V53.5271H31.055C29.0261 53.5271 27.9408 53.6215 27.7521 53.8102C27.5634 53.9989 27.469 55.0134 27.469 56.8536C27.469 60.4633 27.3746 60.3689 30.9842 60.3689H33.7681L34.0512 59.0005C34.4287 57.0896 35.4196 55.2965 36.7172 54.1169C37.7788 53.1496 39.5247 52.3475 40.4919 52.3475C40.8694 52.3475 40.9166 52.1115 40.9166 49.8938C40.9166 47.9121 40.8458 47.393 40.5155 47.1335C40.1145 46.8032 35.7263 46.5673 35.0185 46.8268Z" fill="white"/>
<path d="M44.6455 54.3765C44.8579 56.2403 43.5839 57.4199 40.5641 58.0805C36.1051 59.0714 34.0762 61.1239 34.0762 64.6156C34.0762 66.8569 34.2649 66.9749 37.5678 66.9749C41.0123 66.9749 40.9179 67.0693 40.9179 63.2945V60.369H43.8198C47.6889 60.369 47.6182 60.4162 47.7125 57.2548C47.8069 54.0462 47.6182 53.6687 45.8487 53.5743L44.5512 53.5036L44.6455 54.3765Z" fill="white"/>
</svg>
