<svg width="376" height="48" viewBox="0 0 376 48" fill="none" xmlns="http://www.w3.org/2000/svg">
<path d="M144.015 47.942L131.358 47.9836C130.938 47.9836 130.64 47.687 130.64 47.235L130.645 20.8921L143.301 16.14C143.484 16.0712 143.976 16.3443 144.026 16.4962L144.03 23.3495L147.024 23.3314L155.389 23.3351L157.391 23.0837C159.928 22.7655 161.127 20.5521 161.044 18.1381C160.975 16.1128 160.06 14.3335 157.977 13.7386L155.751 13.3281H130.679L130.64 0.0300915L157.561 0.015625C169.089 0.657561 176.47 10.2812 174.877 21.5593C174.154 26.6767 170.438 32.3023 165.326 34.3818L171.203 46.4574C171.438 46.9384 171.673 47.5568 171.295 47.9854L157.521 47.9999L152.328 36.539L144.052 36.5246L144.017 47.9402L144.015 47.942Z" fill="white"/>
<path d="M39.3004 14.3514L39.257 44.0866L39.1522 47.7086L25.9391 47.7321C25.5775 47.7321 25.2158 47.4934 25.2158 47.045V11.6662C25.2176 11.272 25.3713 10.6138 25.5919 10.4004L33.3313 2.95934L36.5953 0.0136719L71.2091 0.0281384V47.7068L56.9094 47.7339C56.6616 47.5567 56.5224 47.2583 56.4808 46.8714L56.5097 13.337H39.5554C39.2896 13.3352 39.1268 13.997 39.2986 14.3496L39.3004 14.3514Z" fill="white"/>
<path d="M218.751 29.3493L195.658 29.3601C196.998 32.7561 200.931 34.6258 204.609 34.7849L222.569 34.7922L222.583 47.9274L202.795 47.8859C191.75 47.3723 182.284 38.8391 180.434 28.0654C180.062 25.8991 180.175 23.7726 180.244 21.6153L180.477 19.6696C181.966 11.8452 187.269 5.16368 194.576 2.01367C197.238 0.86542 199.871 0.0444658 202.799 0.039041L222.107 0.00830078C222.462 0.205402 222.596 0.456753 222.596 0.820215L222.569 13.3009L203.555 13.3823C200.931 13.3931 196.945 15.8071 195.638 18.6009H215.158L219.379 28.5084C219.525 28.8538 219.23 29.2986 218.751 29.3493Z" fill="white"/>
<path d="M230.093 47.273V21.0711C230.093 20.6317 230.85 20.4328 231.156 20.3171L241.787 16.2756C241.995 16.1961 242.396 16.1744 242.548 16.2738C242.7 16.3733 242.8 16.8271 242.8 17.0333L242.789 20.8722L242.812 34.767L248.684 34.7326C253.879 34.7019 259.316 29.8702 259.056 23.5702C258.824 17.9754 254.465 13.3878 248.798 13.3752L230.813 13.339C230.558 13.3046 230.087 12.9484 230.087 12.7151L230.096 0.0283203L250.532 0.0681025C262.096 0.0898017 273.282 10.5 273.197 22.3152L273.168 26.4634C273.137 30.8665 270.365 36.3962 267.35 39.8645C265.976 41.4449 264.434 42.6926 262.681 43.8933C259.738 45.9113 256.409 47.2151 252.83 47.7395L249.369 47.9276H230.657C230.5 47.9312 230.089 47.5533 230.089 47.2766L230.093 47.273Z" fill="white"/>
<path d="M280.202 20.4293L290.793 16.2883C290.95 16.2268 291.368 16.1852 291.483 16.2847C291.599 16.3842 291.657 16.6301 291.657 16.8579L291.65 34.7905L297.726 34.7417C300.977 34.7164 303.979 33.0962 306.017 30.6297C309.051 26.9553 309.192 21.9373 306.492 18.0261C304.651 15.3589 301.718 13.415 298.344 13.4023L280.005 13.3372C279.73 13.1944 279.491 12.8436 279.491 12.538L279.482 0.0410156L299.698 0.0699458C305.762 0.0789872 311.385 2.76427 315.7 6.80575L316.79 7.92688C324.709 16.0623 324.924 29.8666 317.62 38.7723C313.148 44.2261 306.649 47.8535 299.527 47.8715L280.375 47.9204C279.829 47.9204 279.493 47.6202 279.493 47.0596L279.477 21.4292C279.477 20.9374 279.73 20.6155 280.202 20.4311V20.4293Z" fill="white"/>
<path d="M120.767 34.7797C121.318 34.7797 121.767 35.0383 121.767 35.5319L121.774 47.2405C121.774 47.5877 121.358 47.9168 121.02 47.9168L102.33 47.8661C96.3967 47.8499 90.9592 45.5407 86.529 41.6059C82.6502 38.1612 80.1548 33.3927 79.1693 28.3206C78.9415 27.1488 78.9885 26.0222 78.9324 24.827C78.7299 20.4654 79.7516 16.3896 81.8528 12.5524C84.9793 6.84013 89.5 3.16572 95.7041 1.10791C97.8542 0.395453 99.9572 0.173036 102.268 0.0229492H121.763L121.754 13.3065L103.601 13.3445C100.042 13.4403 96.8723 15.122 94.9501 18.0731C92.3715 22.0314 92.4583 27.0222 95.4202 30.8051C97.2339 33.1215 100.08 34.7254 103.152 34.7327L120.767 34.7761V34.7797Z" fill="white"/>
<path d="M355.194 30.7688C354.627 32.0527 354.572 33.6295 354.565 35.0363L354.507 46.7087C354.661 47.0487 354.581 47.7792 354.279 47.9908L340.806 47.9871L340.79 33.5138C340.79 32.2046 340.229 30.9641 339.782 29.7869L331.761 17.1833L321.893 1.39166C321.747 0.923323 321.752 0.462213 322.002 0.0318453L338.057 0.0209961L347.835 16.7258L350.724 11.6536L357.042 0.0499263H373.507C374.082 0.0499263 373.903 1.38805 373.371 1.61046L358.999 24.4417C357.654 26.5809 356.214 28.4596 355.193 30.767L355.194 30.7688Z" fill="white"/>
<path d="M0.0166594 -6.58199e-05L0 47.7256L14.8983 47.7308L14.915 0.00513468L0.0166594 -6.58199e-05Z" fill="white"/>
<circle cx="369.145" cy="41.4722" r="6.50977" fill="white"/>
</svg>
