<svg width="100" height="100" viewBox="0 0 100 100" fill="none" xmlns="http://www.w3.org/2000/svg">
<path d="M19.8294 49.0591C19.3993 47.2268 17.5711 42.8879 16.5784 41.6305C16.4129 41.5023 16.3219 41.4403 16.2558 41.3493L13.286 48.5793C13.286 48.5793 14.837 48.9557 16.5784 49.1915C17.6993 49.3156 18.8864 49.3156 19.8294 49.0591ZM90.1447 42.4702V57.0958C90.1447 59.9911 88.9783 59.5361 88.5523 59.6313L93.5529 63.8419L99.2691 59.2507C99.2112 58.895 99.0086 58.5434 98.7562 58.4442C96.7916 59.6602 96.9239 57.195 96.9239 57.195V39.7734C96.9239 37.5895 93.0649 35.236 91.6089 35.6951L86.2153 41.0598C86.2774 41.2831 86.4635 41.7298 87.055 41.8291C89.578 39.5128 90.1447 41.8291 90.1447 42.4702ZM67.0813 51.5036V57.7079C67.0813 59.8918 66.254 59.4782 65.6419 59.7264C67.346 60.6281 69.6623 62.4894 71.6559 63.9081L77.6369 60.1193L82.075 64.0073L87.3114 58.895C87.3114 58.895 87.2452 58.1505 86.6083 58.1877C84.7718 59.9911 84.2299 56.9965 84.2299 56.9965V49.4149C84.2299 46.1018 79.9779 45.3614 79.0845 45.3945L74.8036 49.572C74.9895 49.8809 75.2713 50.1205 75.606 50.2545C77.6079 48.6745 77.9512 50.9577 77.9512 50.9577V57.1619C77.8933 59.7264 73.2359 60.6653 73.2359 57.195V48.5504C72.843 46.1679 69.4637 44.8485 68.9839 45.2663L64.0991 49.2866C64.3266 49.6713 64.3473 50.1304 64.9553 50.0601C67.1185 48.5421 67.0813 51.5036 67.0813 51.5036ZM34.7983 50.3166V57.0668C34.7983 58.9281 33.4168 58.895 32.9784 58.9901L38.2479 63.5565L43.323 59.0894C43.2204 58.8121 43.058 58.5607 42.8473 58.3532C42.0077 58.7957 41.3707 58.5434 41.3707 57.4432V50.6019C41.8174 48.4842 44.8368 48.9599 44.8368 50.4075V57.4225C44.7624 58.8288 44.1916 59.441 43.5546 59.6354L48.3361 63.5896L53.4773 59.2755C53.3946 58.924 53.3946 58.6137 52.9438 58.4483C52.4309 58.4814 51.4672 59.4823 51.4672 57.2571V50.5689C52.526 47.8679 55.1277 49.2866 55.2311 50.7963V57.0668C55.1939 58.5434 54.925 59.4782 53.7173 59.8918L58.6972 63.7799L63.975 59.0232C63.975 58.7047 63.52 58.3739 63.3546 58.287C61.6215 59.7926 61.7166 57.8941 61.6918 57.6045V48.9599C61.6215 47.4502 58.7965 44.3067 55.0326 45.7212L51.2686 48.4842C49.2667 45.076 46.3466 44.9809 45.5689 45.1753C44.295 45.3573 41.5899 48.6414 41.2756 48.1244C40.0844 45.1753 36.9202 45.1132 36.2749 45.2042L31.8492 49.0261C32.0726 49.51 32.4324 49.572 32.6764 49.6672C33.8718 48.964 34.6825 49.1212 34.7983 50.3166ZM11.7556 52.3474L10.3741 56.0948L13.6417 58.1877C14.1049 58.4814 14.6881 58.287 15.6105 57.4432L16.2599 58.0926C14.7833 59.7884 13.2405 61.4015 11.7266 63.1057C9.73297 61.2775 7.38362 59.4782 5.13353 59.4782C2.536 59.532 0.116326 62.0426 2.627 66.5801C2.69731 66.671 2.23819 67.1508 1.98175 66.9523C0.0584196 65.3185 -0.715048 60.8225 0.798798 58.287C1.85766 56.6449 3.77686 55.0401 7.05686 55.4206L8.35149 51.9048C7.1644 51.4375 5.87804 51.9048 4.26493 53.1788C4.81091 50.4075 6.54397 48.4801 10.1052 48.0003L13.7534 39.2564C11.8218 38.4829 10.0184 39.4218 9.12082 41.0598C8.57484 40.9894 8.19017 40.7992 8.08677 40.4517L11.8218 33.5029C13.6417 32.8701 15.201 32.8701 16.5825 33.3044C22.2739 35.1078 25.132 44.7203 29.3964 55.3296C29.7894 56.3554 30.3105 56.4505 31.5307 55.1393L32.3993 55.9087L24.706 63.5606L21.1654 52.9803C21.1654 53.0713 19.4406 53.4973 16.5866 53.2408C14.9494 53.1136 13.3301 52.8141 11.7556 52.3474Z" fill="white"/>
</svg>
