<svg width="100" height="100" viewBox="0 0 100 100" fill="none" xmlns="http://www.w3.org/2000/svg">
<path d="M39.8745 31.1302C37.5545 32.1235 35.6412 32.9635 35.6212 32.9835C35.5945 33.0035 37.1145 36.4102 38.9878 40.5502C40.8612 44.6902 42.3945 48.1302 42.3945 48.1902C42.3945 48.3502 41.4345 50.3235 40.7945 51.4702C38.6478 55.3102 36.0812 58.3302 33.5145 60.0102C32.7612 60.5035 32.3478 60.6969 31.5478 60.9235C30.4945 61.2235 29.8412 61.3102 28.5345 61.3235L27.3078 61.3302L25.2545 65.4835L23.2012 69.6435L23.7545 69.8969C24.4678 70.2235 25.4545 70.5302 26.2612 70.6702C27.0545 70.8035 28.9012 70.7635 29.6545 70.5969C30.9278 70.3169 32.1878 69.7502 33.5145 68.8702C35.9745 67.2435 38.7678 63.1169 41.0812 57.6635C41.2812 57.1835 41.7212 56.1969 42.0612 55.4635C42.3945 54.7302 42.8945 53.6035 43.1678 52.9635C43.4412 52.3235 43.7078 51.7035 43.7545 51.5969L43.8412 51.3969L43.9878 51.6969C44.0678 51.8635 45.7212 55.5235 47.6612 59.8302L51.1878 67.6635L56.2212 67.6835C58.9945 67.6902 61.2612 67.6835 61.2612 67.6702C61.2612 67.6569 60.1078 65.0835 58.6945 61.9635C57.2812 58.8369 56.1278 56.2435 56.1278 56.2035C56.1278 56.0969 58.8078 50.1635 58.8545 50.1635C58.8745 50.1635 60.6678 54.1035 62.8345 58.9169L66.7812 67.6635L71.8278 67.6835C75.8612 67.6969 76.8678 67.6835 76.8412 67.6169C76.7945 67.4902 60.0545 30.0035 60.0212 29.9569C60.0012 29.9235 51.9878 33.5369 51.6478 33.7369C51.5612 33.7902 52.0012 34.8102 54.4945 40.3635C56.3678 44.5302 57.4278 46.9635 57.3945 47.0302C57.3678 47.0835 56.7545 48.4569 56.0278 50.0835C55.2945 51.7035 54.6812 53.0102 54.6612 52.9835C54.6345 52.9502 52.3012 47.7102 49.4612 41.3302C46.6278 34.9502 44.2612 29.6369 44.2012 29.5235L44.0945 29.3102L39.8745 31.1302Z" fill="white"/>
</svg>
