<svg width="100" height="100" viewBox="0 0 100 100" fill="none" xmlns="http://www.w3.org/2000/svg">
<g clip-path="url(#clip0_110_270)">
<mask id="mask0_110_270" style="mask-type:luminance" maskUnits="userSpaceOnUse" x="25" y="24" width="283" height="51">
<path d="M307.208 24H25.0078V74.8411H307.208V24Z" fill="white"/>
</mask>
<g mask="url(#mask0_110_270)">
<path d="M32.0524 38.0223C31.5921 37.5631 31.2269 37.0178 30.9778 36.4178C30.7287 35.8178 30.6004 35.1748 30.6004 34.5254C30.6004 33.876 30.7287 33.2329 30.9778 32.633C31.2269 32.033 31.5921 31.4878 32.0524 31.0286C32.5127 30.5694 33.0592 30.2051 33.6607 29.9566C34.2621 29.7081 34.9068 29.5802 35.5578 29.5802C36.2088 29.5802 36.8534 29.7081 37.4549 29.9566C38.0563 30.2051 38.6028 30.5694 39.0631 31.0286L46.5335 38.4808L50.4884 34.5357L43.0179 27.0834C41.0318 25.1467 38.3601 24.0693 35.5827 24.0851C32.8052 24.1009 30.1461 25.2086 28.1821 27.1677C26.2181 29.1269 25.1078 31.7796 25.092 34.5503C25.0761 37.3209 26.1561 39.986 28.0976 41.9674L35.568 49.4197L39.5229 45.4745L32.0524 38.0223Z" fill="white"/>
<path d="M65.4126 49.4197L61.4578 53.3648L68.9282 60.8191C69.3886 61.2783 69.7537 61.8234 70.0028 62.4234C70.2519 63.0234 70.3802 63.6665 70.3802 64.3159C70.3802 64.9654 70.2519 65.6084 70.0028 66.2084C69.7537 66.8084 69.3886 67.3535 68.9282 67.8128C68.468 68.272 67.9215 68.6363 67.32 68.8847C66.7185 69.1332 66.0739 69.2612 65.4229 69.2612C64.7719 69.2612 64.1273 69.1332 63.5258 68.8847C62.9244 68.6363 62.3779 68.272 61.9175 67.8128L54.445 60.3605L50.4902 64.3057L57.9628 71.7579C58.9383 72.7535 60.1023 73.5462 61.387 74.09C62.6719 74.6337 64.0522 74.9179 65.4477 74.9258C66.8434 74.9337 68.2268 74.6654 69.5178 74.1362C70.8087 73.6071 71.9816 72.8277 72.9685 71.8432C73.9554 70.8587 74.7368 69.6887 75.2672 68.4009C75.7976 67.1131 76.0666 65.733 76.0587 64.3408C76.0508 62.9485 75.7659 61.5716 75.2208 60.2899C74.6758 59.0082 73.8811 57.8471 72.8831 56.874L65.4126 49.4197Z" fill="white"/>
<path d="M54.4448 38.4817L50.4902 42.4266L57.501 49.4203L61.4556 45.4754L54.4448 38.4817Z" fill="white"/>
<path d="M43.478 49.4209L39.5234 53.3658L46.5342 60.3595L50.4888 56.4146L43.478 49.4209Z" fill="white"/>
<path d="M39.0633 67.8128C38.6029 68.272 38.0564 68.6363 37.4549 68.8847C36.8535 69.1332 36.2089 69.2612 35.5579 69.2612C34.9068 69.2612 34.2622 69.1332 33.6608 68.8847C33.0593 68.6363 32.5128 68.272 32.0525 67.8128C31.5922 67.3535 31.227 66.8084 30.9779 66.2084C30.7288 65.6084 30.6005 64.9654 30.6005 64.3159C30.6005 63.6665 30.7288 63.0234 30.9779 62.4234C31.227 61.8234 31.5922 61.2783 32.0525 60.8191L39.5229 53.3669L35.5681 49.4197L28.0977 56.874C27.0996 57.8471 26.305 59.0082 25.7599 60.2899C25.2148 61.5716 24.93 62.9485 24.922 64.3408C24.9141 65.733 25.1831 67.1131 25.7136 68.4009C26.244 69.6887 27.0253 70.8587 28.0122 71.8432C28.9991 72.8277 30.172 73.6071 31.4629 74.1362C32.7539 74.6654 34.1373 74.9337 35.533 74.9258C36.9286 74.9179 38.3088 74.6337 39.5937 74.09C40.8785 73.5462 42.0425 72.7535 43.018 71.7579L50.4885 64.3057L46.5336 60.3605L39.0633 67.8128Z" fill="white"/>
<path d="M46.5342 38.4819L39.5234 45.4756L43.478 49.4205L50.4888 42.4268L46.5342 38.4819Z" fill="white"/>
<path d="M57.501 49.4207L50.4902 56.4143L54.4448 60.3592L61.4556 53.3656L57.501 49.4207Z" fill="white"/>
<path d="M61.9175 31.0285C62.3779 30.5693 62.9244 30.2051 63.5258 29.9565C64.1273 29.708 64.7719 29.5801 65.4229 29.5801C66.0739 29.5801 66.7185 29.708 67.32 29.9565C67.9215 30.2051 68.468 30.5693 68.9282 31.0285C69.3886 31.4877 69.7537 32.0329 70.0028 32.6329C70.2519 33.2329 70.3802 33.8759 70.3802 34.5253C70.3802 35.1748 70.2519 35.8178 70.0028 36.4178C69.7537 37.0178 69.3886 37.563 68.9282 38.0221L61.4578 45.4764L65.4126 49.4196L72.8831 41.9674C73.8811 40.9942 74.6758 39.8331 75.2208 38.5514C75.7659 37.2696 76.0508 35.8928 76.0587 34.5005C76.0666 33.1082 75.7976 31.7282 75.2672 30.4404C74.7368 29.1526 73.9554 27.9826 72.9685 26.9981C71.9816 26.0136 70.8087 25.2342 69.5178 24.705C68.2268 24.1759 66.8434 23.9075 65.4477 23.9155C64.0522 23.9234 62.6719 24.2075 61.387 24.7512C60.1023 25.295 58.9383 26.0877 57.9628 27.0833L50.4902 34.5356L54.445 38.4808L61.9175 31.0285Z" fill="white"/>
<path d="M50.4897 34.5378L46.5352 38.4827L50.4897 42.4276L54.4442 38.4827L50.4897 34.5378Z" fill="white"/>
<path d="M50.4897 56.4136L46.5352 60.3585L50.4897 64.3034L54.4442 60.3585L50.4897 56.4136Z" fill="white"/>
<path d="M39.5229 45.4749L35.5684 49.4198L39.5229 53.3647L43.4774 49.4198L39.5229 45.4749Z" fill="white"/>
<path d="M61.4565 45.4746L57.502 49.4195L61.4565 53.3644L65.411 49.4195L61.4565 45.4746Z" fill="white"/>
</g>
</g>
<defs>
<clipPath id="clip0_110_270">
<rect width="51" height="51" fill="white" transform="translate(25 24)"/>
</clipPath>
</defs>
</svg>
