<svg width="100" height="100" viewBox="0 0 100 100" fill="none" xmlns="http://www.w3.org/2000/svg">
<g clip-path="url(#clip0_110_340)">
<path fill-rule="evenodd" clip-rule="evenodd" d="M21.163 41V58.9312H16.8762V41H21.163ZM7.63519 42.5677C11.8746 42.553 15.2265 45.7985 15.2406 49.931C15.2547 53.9482 11.8593 57.2277 7.6845 57.2303C3.48412 57.2322 0.109213 53.9681 0.0976855 49.8932C0.0861583 45.8798 3.479 42.5818 7.63455 42.5677H7.63519ZM90.9806 42.8309C92.4651 42.617 93.9252 42.706 95.158 43.7236C95.8182 44.268 96.1314 44.991 96.2787 45.7972C96.3254 46.0534 96.351 46.3134 96.3779 46.5728C96.4125 46.8994 96.3312 47.1004 95.92 47.0876C95.1327 47.0638 94.3449 47.0642 93.5576 47.0889C93.2176 47.0992 93.126 46.964 93.1029 46.6663C93.0619 46.1655 92.8019 45.8081 92.2928 45.6576C91.7805 45.5046 91.1721 45.7242 90.989 46.1232C90.7635 46.6118 90.9313 47.2055 91.3943 47.509C92.0815 47.9611 92.8839 48.1616 93.6389 48.4645C94.3088 48.7335 94.9524 49.037 95.4935 49.5167C96.8115 50.6848 97.0113 52.159 96.6206 53.7465C96.2236 55.3648 95.1035 56.3453 93.4814 56.7225C91.7991 57.1131 90.1411 57.0523 88.6867 55.9879C87.5455 55.1515 87.3246 53.9111 87.2772 52.6207C87.2682 52.3754 87.461 52.3364 87.6589 52.3364C88.5138 52.3351 89.3688 52.3428 90.2237 52.3312C90.5317 52.3274 90.549 52.4817 90.5721 52.7283C90.6636 53.7158 91.4379 54.246 92.3511 53.9835C92.8058 53.8522 93.1324 53.6069 93.2041 53.1234C93.281 52.6111 93.1311 52.1833 92.679 51.8842C92.0213 51.4475 91.2496 51.2547 90.5343 50.9409C89.9246 50.6745 89.3066 50.4292 88.786 50.0008C88.5131 49.774 88.2787 49.5045 88.0918 49.2029C88.0841 49.1901 88.0764 49.1792 88.0687 49.1689C87.4296 48.1936 87.4143 47.4418 87.4143 46.8251C87.4143 46.3998 87.4322 46.0419 87.55 45.6416C87.6045 45.4604 87.8241 44.9487 88.1379 44.4787C88.7809 43.5642 89.7376 43.0096 90.9806 42.8309ZM60.203 42.9782C61.0227 43.0064 61.845 42.9936 62.666 42.9827C62.9625 42.9782 63.1169 43.0262 63.1149 43.3823C63.0996 46.1488 63.1405 48.9166 63.0951 51.6831C63.0451 54.7142 60.7832 56.8557 57.6792 56.9152C57.1599 56.9288 56.6403 56.9001 56.1256 56.8294C51.7767 56.262 51.6025 52.4593 51.5961 52.1007C51.5927 52.0373 51.5903 51.9739 51.589 51.9105L51.5845 51.8035L51.5833 51.4475C51.5813 48.583 51.5813 46.2353 51.5833 43.3701C51.5833 43.2587 51.6185 42.9923 51.9003 42.9923C52.6847 42.9692 53.5973 43.0128 54.6322 42.9904C54.9787 42.9827 55.0228 43.2504 55.0235 43.4514C55.0267 44.7617 55.0248 46.072 55.0248 47.3816C55.0248 48.6425 55.0312 49.9035 55.0209 51.1638C55.0186 51.5244 55.0649 51.8837 55.1586 52.232C55.4513 53.3142 56.2217 53.817 57.5057 53.7875C58.6104 53.7619 59.318 53.1945 59.5754 52.1417C59.6459 51.8563 59.6807 51.5634 59.6792 51.2694C59.6747 48.6822 59.6856 46.0957 59.6677 43.5091C59.6651 43.1018 59.781 42.9641 60.203 42.9782ZM79.4163 42.7611C83.0307 42.6753 86.6451 45.6141 86.6887 49.8221C86.729 53.7055 83.3881 56.9152 79.3868 56.9126C75.376 56.9088 72.1375 53.719 72.1337 49.7876C72.1286 45.8004 75.6732 42.6663 79.4163 42.7611ZM46.1706 42.9795C46.5375 42.9718 46.6067 43.2036 46.7002 43.4502C47.7806 46.3115 50.9819 54.7897 51.5237 56.1589C51.671 56.5316 51.6428 56.668 51.1894 56.6546C50.2851 56.6317 49.3804 56.631 48.476 56.6526C48.161 56.6591 48.0021 56.5675 47.8997 56.262C47.6275 55.4551 47.3079 54.6642 47.0204 53.8618C46.9308 53.6095 46.8225 53.475 46.501 53.482C45.3125 53.5064 44.1226 53.498 42.9327 53.4865C42.6599 53.4839 42.5274 53.5467 42.4364 53.8298C42.1719 54.6559 41.8453 55.4615 41.5674 56.2825C41.4726 56.5624 41.3221 56.6571 41.0269 56.6526C40.1739 56.6405 39.3202 56.6571 38.4666 56.6571C38.1586 56.6571 38.2348 56.3875 38.2572 56.2473C38.279 56.1083 42.3769 44.4927 42.8085 43.2792C42.8918 43.0448 43.0294 42.9833 43.2549 42.9846C44.227 42.9891 45.1991 43.0006 46.1706 42.9795ZM71.8218 42.9833C72.0684 42.9833 72.1926 43.0493 72.1894 43.315C72.1799 44.1341 72.1799 44.9532 72.1894 45.7723C72.192 46.0246 72.1017 46.1174 71.8372 46.1078C71.3351 46.0905 70.8305 46.1251 70.3297 46.0957C69.9839 46.0752 69.9237 46.2052 69.9243 46.5113C69.9352 49.6729 69.9307 52.8352 69.9307 55.9969C69.9307 56.6462 69.9307 56.6469 69.2423 56.6469C68.4546 56.6469 67.6656 56.6322 66.8792 56.6533C66.5206 56.6623 66.4245 56.5335 66.4284 56.1973C66.4431 54.5758 66.4348 52.9537 66.4348 51.3322C66.4348 49.7587 66.4123 48.1859 66.4489 46.6137C66.4591 46.1539 66.3067 46.0643 65.8885 46.095C65.4217 46.1296 64.9497 46.0937 64.4809 46.1065C64.2158 46.1142 64.071 46.0438 64.0749 45.7543C64.0832 44.9519 64.0839 44.1495 64.0736 43.3464C64.0704 43.0563 64.2196 42.984 64.4796 42.9846C66.9259 42.9878 69.3742 42.9884 71.8218 42.9833ZM23.4108 45.4149C24.1216 45.4316 24.835 45.397 25.5446 45.4341C25.7636 45.4457 26.0172 45.5789 26.1786 45.7326C26.6455 46.1763 27.0726 46.6586 27.5862 47.2016C28.1337 46.6349 28.5878 46.1539 29.0572 45.6884C29.1712 45.5744 29.3338 45.4386 29.4773 45.4341C30.3566 45.4104 31.2371 45.4226 32.1798 45.4226C32.1798 46.373 32.1926 47.2695 32.167 48.1648C32.1638 48.3012 32.0018 48.4466 31.8878 48.5638C31.4529 49.0108 31.0091 49.4475 30.5115 49.9445C30.9854 50.3953 31.4555 50.8327 31.9115 51.2835C32.0248 51.3962 32.1651 51.5525 32.1689 51.6921C32.1926 52.5509 32.1804 53.4109 32.1804 54.3299C31.2237 54.3299 30.3245 54.344 29.4267 54.3171C29.2666 54.3126 29.0841 54.1634 28.9579 54.0373C28.5289 53.6082 28.1203 53.1599 27.574 52.5797C27.0822 53.1234 26.6999 53.5941 26.2612 54.0078C26.0768 54.1807 25.7745 54.3075 25.519 54.3197C24.6993 54.3581 23.8751 54.3344 22.9894 54.3344C22.9894 53.4077 22.9766 52.5483 23.0016 51.6895C23.0054 51.5493 23.1514 51.393 23.268 51.2797C23.7163 50.841 24.178 50.4177 24.6974 49.9304C24.2337 49.4834 23.8328 49.0594 23.389 48.6842C23.0663 48.4113 22.9548 48.1097 22.9753 47.7011C23.0073 47.0825 22.9965 46.4607 22.9785 45.8408C22.9696 45.5238 23.0829 45.4072 23.4108 45.4149ZM79.4112 45.6602C77.0788 45.6602 75.189 47.5295 75.189 49.8356C75.189 52.141 77.0788 54.0104 79.4112 54.0104C81.7422 54.0104 83.6327 52.141 83.6327 49.835C83.6327 47.5295 81.7422 45.6602 79.4112 45.6602ZM7.65568 47.6499C6.39602 47.6678 5.3733 48.6637 5.37842 49.867C5.38483 51.167 6.4069 52.1782 7.69539 52.1577C8.92367 52.1385 9.99954 51.1055 10.004 49.9419C10.0098 48.6957 8.91919 47.632 7.65568 47.6499ZM44.7233 47.3406L43.5623 50.6169H45.8805C45.5027 49.5493 45.1389 48.517 44.7233 47.3406Z" fill="white"/>
</g>
<defs>
<clipPath id="clip0_110_340">
<rect width="99.9023" height="17.9312" fill="white" transform="translate(0.0976562 41)"/>
</clipPath>
</defs>
</svg>
