<svg width="100" height="100" viewBox="0 0 100 100" fill="none" xmlns="http://www.w3.org/2000/svg">
<mask id="mask0_110_213" style="mask-type:luminance" maskUnits="userSpaceOnUse" x="0" y="27" width="100" height="47">
<path d="M100 27H0V73.745H100V27Z" fill="white"/>
</mask>
<g mask="url(#mask0_110_213)">
<path d="M39.0059 66.9567V33.8287C39.0056 33.512 39.0678 33.1983 39.1888 32.9057C39.3098 32.613 39.4873 32.347 39.7112 32.123C39.935 31.8989 40.2008 31.7212 40.4934 31.5999C40.786 31.4787 41.0996 31.4163 41.4163 31.4163H52.8871C53.204 31.416 53.5178 31.4782 53.8106 31.5994C54.1034 31.7205 54.3695 31.8982 54.5936 32.1223C54.8177 32.3463 54.9953 32.6124 55.1165 32.9052C55.2376 33.198 55.2999 33.5118 55.2996 33.8287C55.2999 34.1456 55.2376 34.4594 55.1165 34.7522C54.9953 35.045 54.8177 35.3111 54.5936 35.5352C54.3695 35.7592 54.1034 35.9369 53.8106 36.0581C53.5178 36.1792 53.204 36.2415 52.8871 36.2411H44.1031V47.6531H52.192C52.5087 47.6531 52.8224 47.7154 53.1149 47.8367C53.4075 47.958 53.6733 48.1357 53.8972 48.3597C54.121 48.5838 54.2985 48.8497 54.4196 49.1425C54.5406 49.4351 54.6027 49.7487 54.6025 50.0654V50.1183C54.6027 50.435 54.5406 50.7487 54.4196 51.0414C54.2985 51.334 54.121 51.6 53.8972 51.824C53.6733 52.0481 53.4075 52.2259 53.1149 52.347C52.8224 52.4683 52.5087 52.5308 52.192 52.5308H44.1031V64.5422H53.2164C53.5331 64.5422 53.8467 64.6046 54.1393 64.7259C54.4318 64.8471 54.6976 65.0249 54.9215 65.2489C55.1453 65.4729 55.3229 65.7389 55.4439 66.0316C55.5649 66.3242 55.6271 66.6379 55.6268 66.9547C55.6268 67.5939 55.3728 68.207 54.9208 68.659C54.4688 69.1111 53.8556 69.365 53.2164 69.365H41.4285C41.1111 69.3666 40.7965 69.3056 40.5028 69.1853C40.2091 69.065 39.942 68.8879 39.7169 68.6641C39.4918 68.4403 39.3131 68.1743 39.1911 67.8813C39.0691 67.5883 39.0061 67.274 39.0059 66.9567Z" fill="white"/>
<path d="M68.1638 69.9567C66.2669 69.9567 64.6504 69.618 63.3145 68.9405C62.0534 68.3259 60.9384 67.4486 60.0443 66.3675C59.2196 65.3598 58.5921 64.2055 58.1949 62.9654C57.8178 61.8322 57.619 60.6474 57.6055 59.4533V34.2863C57.6055 33.9513 57.6716 33.6195 57.8001 33.3102C57.9286 33.0008 58.117 32.7198 58.3544 32.4834C58.5917 32.247 58.8734 32.0598 59.1833 31.9325C59.4932 31.8052 59.8252 31.7404 60.1602 31.7417C60.835 31.7417 61.4822 32.0098 61.9595 32.487C62.4366 32.9642 62.7047 33.6114 62.7047 34.2863V59.4513C62.7127 60.1077 62.8217 60.7589 63.0279 61.3821C63.2382 62.0555 63.574 62.683 64.0177 63.2315C64.8239 64.1433 65.9038 64.7694 67.0957 65.016C68.2875 65.2626 69.5272 65.1164 70.6291 64.5994C71.2755 64.2696 71.8427 63.8037 72.2915 63.2336C72.7201 62.679 73.0469 62.0528 73.2569 61.3841C73.4616 60.7606 73.5699 60.1095 73.5781 59.4533V34.2863C73.5781 33.9519 73.644 33.6209 73.7719 33.312C73.8999 33.0032 74.0875 32.7226 74.3241 32.4863C74.5605 32.25 74.8413 32.0626 75.1503 31.9348C75.4593 31.8071 75.7903 31.7415 76.1246 31.7417C76.7995 31.7417 77.4467 32.0098 77.924 32.487C78.4011 32.9642 78.6692 33.6114 78.6692 34.2863V59.4513C78.6581 60.6395 78.4872 61.8207 78.1611 62.9633C77.8044 64.2584 77.1741 65.462 76.3127 66.4927C75.4512 67.5235 74.3787 68.3575 73.1675 68.9385C71.8342 69.6173 70.1663 69.9567 68.1638 69.9567Z" fill="white"/>
<path d="M81.0254 66.9568V66.3817C81.0272 66.0527 81.0964 65.7276 81.2286 65.4264L93.8378 36.2434H83.6533C83.3364 36.2436 83.0225 36.1814 82.7297 36.0603C82.4369 35.9391 82.1709 35.7614 81.9468 35.5374C81.7228 35.3133 81.5451 35.0472 81.4239 34.7544C81.3028 34.4616 81.2405 34.1478 81.2408 33.8309C81.2405 33.514 81.3028 33.2002 81.4239 32.9074C81.5451 32.6146 81.7228 32.3485 81.9468 32.1245C82.1709 31.9004 82.4369 31.7227 82.7297 31.6016C83.0225 31.4804 83.3364 31.4182 83.6533 31.4185H97.3736C97.6911 31.4177 98.0051 31.4795 98.2988 31.6004C98.5916 31.7213 98.8589 31.8989 99.0829 32.123C99.3078 32.3471 99.486 32.6134 99.6068 32.9065C99.7285 33.1995 99.7911 33.5137 99.7903 33.8309V34.5666C99.7885 34.8949 99.7197 35.2193 99.5874 35.5198L87.0839 64.5444H97.5897C98.2283 64.546 98.8395 64.8009 99.2902 65.2532C99.7417 65.7056 99.994 66.3183 99.994 66.9568C99.994 67.2734 99.9314 67.5868 99.8105 67.8792C99.6888 68.1717 99.5115 68.4374 99.2875 68.6613C99.0635 68.885 98.798 69.0627 98.5061 69.1838C98.2133 69.3049 97.9002 69.3672 97.5835 69.3672H83.4378C82.7983 69.3672 82.185 69.1134 81.7326 68.6614C81.2803 68.2093 81.0259 67.5963 81.0254 66.9568Z" fill="white"/>
<path d="M13.7064 28.4084C10.7639 28.4122 7.94288 29.5831 5.86252 31.6642C3.78215 33.7454 2.61228 36.5667 2.60959 39.5094L2.64211 67.2759H0L5.00781 73.745L10.0176 67.2759H7.56254L7.53408 39.5073C7.53408 37.8703 8.18439 36.3004 9.34195 35.1428C10.4995 33.9853 12.0695 33.335 13.7064 33.335C15.3435 33.335 16.9134 33.9853 18.071 35.1428C19.2285 36.3004 19.8788 37.8703 19.8788 39.5073V61.4572C19.8788 62.1104 20.1384 62.737 20.6003 63.1989C21.0623 63.6609 21.6888 63.9204 22.3421 63.9204C22.9954 63.9204 23.6219 63.6609 24.0839 63.1989C24.5458 62.737 24.8054 62.1104 24.8054 61.4572V39.5073C24.8021 36.5647 23.6317 33.7435 21.551 31.6628C19.4703 29.5821 16.6491 28.4117 13.7064 28.4084Z" fill="white"/>
<path d="M35.9982 33.4691L30.9904 27L25.9825 33.4691H28.5027V61.2376C28.5027 62.8746 27.8524 64.4447 26.6949 65.6022C25.5373 66.7597 23.9674 67.41 22.3303 67.41C20.6934 67.41 19.1234 66.7597 17.9659 65.6022C16.8083 64.4447 16.158 62.8746 16.158 61.2376V39.2878C16.158 38.6346 15.8985 38.008 15.4365 37.546C14.9745 37.0841 14.3481 36.8246 13.6947 36.8246C13.0414 36.8246 12.4149 37.0841 11.953 37.546C11.491 38.008 11.2315 38.6346 11.2315 39.2878V61.2376C11.2116 62.7077 11.4839 64.167 12.0328 65.5309C12.5815 66.8948 13.3958 68.1361 14.4283 69.1827C15.4609 70.2292 16.691 71.0602 18.0474 71.6274C19.4037 72.1946 20.8592 72.4867 22.3294 72.4867C23.7996 72.4867 25.255 72.1946 26.6114 71.6274C27.9677 71.0602 29.1979 70.2292 30.2304 69.1827C31.2629 68.1361 32.0772 66.8948 32.626 65.5309C33.1748 64.167 33.4471 62.7077 33.4273 61.2376V33.4691H35.9982Z" fill="white"/>
</g>
</svg>
