<svg width="100" height="100" viewBox="0 0 100 100" fill="none" xmlns="http://www.w3.org/2000/svg">
<path d="M55.8456 38.5548V46.395H44.9839V38.5548H43.4316V55.8579H44.9839V47.9241H55.8456V55.8579H57.3978V38.5548H55.8456Z" fill="white"/>
<path d="M44.6846 70.4854L44.4609 69.1758C44.1866 67.5654 43.0731 66.0638 41.4326 65.041V65.04C40.1364 64.2329 38.7022 63.7951 37.3447 63.3789L37.123 63.3115L37.124 63.3105C36.3187 63.063 35.5176 62.7964 34.8105 62.4414C34.1041 62.0867 33.5034 61.6501 33.0898 61.0693C32.414 60.1201 32.3105 58.8524 32.3506 57.9316C32.3598 57.7222 32.4498 56.9837 32.5664 56.0264C33.0329 52.185 34.1035 43.3497 33.7139 37.3145C39.1181 34.6202 46.0695 29.4015 49.2334 27.0234L49.4805 26.8379L49.2148 26.6807L48.5879 26.3115C47.9214 25.9191 47.0856 25.962 46.4648 26.4248C42.4907 29.389 35.666 34.3195 31.0283 36.1973C30.3044 36.4893 29.3889 36.7045 28.4736 36.7041C27.5582 36.7037 26.6582 36.4882 25.9453 35.9365C25.4666 35.5625 25.1378 34.9782 25.0039 34.3418C24.87 33.7049 24.935 33.035 25.2207 32.498L25.2285 32.4824L25.2412 32.4521C25.6169 31.862 26.2743 31.4344 26.9814 31.2646L26.9824 31.2637C27.5349 31.1274 28.1022 31.1497 28.5947 31.3486L28.8115 31.4473C29.3127 31.6968 29.7748 32.0893 30.168 32.6064C30.2607 32.7308 30.3473 32.8608 30.4316 32.9961C29.955 33.2249 29.337 33.4526 28.7471 33.4697H28.7354L28.7236 33.4717C28.7014 33.4749 28.688 33.4745 28.6816 33.4736L28.667 33.4707H28.6523C28.467 33.4711 28.2843 33.4449 28.1006 33.3936H28.0996C27.7394 33.2931 27.4104 33.0281 27.2139 32.7012V32.7002C27.1795 32.6433 27.1492 32.5852 27.124 32.5254L27.0479 32.3438L26.8633 32.4111C26.6233 32.4991 26.4033 32.6404 26.2266 32.8389V32.8398L26.2188 32.8477C25.655 33.4617 25.7171 34.4115 26.4004 34.9121C27.6856 35.8526 29.1866 35.7023 30.3506 35.3281C31.5138 34.9542 32.3863 34.3433 32.4727 34.2812L33.0381 33.877L33.1738 33.7803L33.1074 33.627L32.832 32.9893L32.8311 32.9902C32.0982 31.2691 30.8863 29.9714 29.3994 29.3691L29.3984 29.3701C27.2784 28.5016 24.6577 29.364 23.4121 31.3535L23.4082 31.3604L23.3477 31.4658L23.3447 31.4717C22.2582 33.5219 22.826 36.2183 24.6348 37.624C26.7434 39.2628 29.6008 39.0192 31.626 38.2559C31.8654 44.0473 30.8847 52.1368 30.4434 55.7686C30.4275 55.8978 30.4124 56.0197 30.3984 56.1348C30.0766 55.8163 29.7955 55.4487 29.6035 55.0283C29.3074 54.3805 29.2293 53.6424 29.2754 52.8535C29.3216 52.0642 29.4914 51.2372 29.6797 50.416L29.7314 50.1924L29.9678 49.1396C30.1947 48.0726 30.3744 46.9634 30.3359 45.8184C30.271 43.8858 29.5266 42.1712 28.2686 41.1279L27.2451 40.2793L27.001 40.0771L26.915 40.3828L26.5566 41.6621C26.3554 42.3795 26.0109 43.0673 25.6328 43.8174C25.3634 44.3523 25.0796 44.9153 24.8457 45.5107C24.5634 46.2283 24.2415 47.3398 24.3418 48.5234C24.4522 49.8314 25.1459 51.0278 26.2031 51.7451L26.4756 51.9297L26.5234 51.6045C26.5931 51.1295 26.7823 50.2236 26.8701 49.8125C26.9117 49.6176 26.8649 49.4309 26.7744 49.2764C26.6093 48.9945 26.5013 48.6787 26.4727 48.3438C26.4227 47.7531 26.5476 47.0246 26.835 46.2939C27.032 45.7929 27.2777 45.3049 27.543 44.7783C27.6467 44.5724 27.7509 44.3625 27.8545 44.1494C28.0562 44.6615 28.1778 45.2512 28.1992 45.8906L28.2002 46.3555C28.1696 47.4404 27.9185 48.536 27.6475 49.7129L27.5957 49.9375C27.1534 51.8666 26.7719 53.9759 27.6592 55.917C28.1516 56.9958 29.0351 57.943 30.2178 58.6992C30.2812 60.1037 30.6604 61.3435 31.3486 62.3105C32.5866 64.0486 34.6033 64.773 36.4951 65.3545L36.7178 65.4229C38.0366 65.8271 39.2512 66.1998 40.3018 66.8545C40.8451 67.1934 41.295 67.5944 41.6377 68.0254C41.4012 68.0086 41.1672 67.9927 40.9365 67.9795C40.3479 67.9462 39.8029 67.9146 39.2705 67.835C38.4364 67.7098 37.7286 67.4358 37.2354 67.0674L37.0371 66.9043C36.9197 66.7962 36.8152 66.6709 36.7246 66.5332L36.6387 66.3916C36.5521 66.2366 36.4147 66.102 36.2266 66.041C35.8214 65.9096 34.9154 65.6119 34.4512 65.4238L34.0801 65.2734L34.1729 65.6631L34.3291 66.3174C34.526 67.1458 34.9737 67.9127 35.5918 68.4795C36.6378 69.4392 38.0057 69.8082 38.9531 69.9502C39.5854 70.0449 40.2154 70.0808 40.8135 70.1152C41.652 70.1631 42.4201 70.2069 43.1426 70.3916L44.4297 70.7207L44.7373 70.7988L44.6846 70.4854Z" fill="white" stroke="white" stroke-width="0.4125"/>
<path d="M50.5195 78.2061C52.8384 78.1219 54.8896 76.2828 55.2031 74.0137V74.0127C55.5676 71.3669 53.9273 69.0139 52.2539 67.6416C57.1499 64.5383 64.6461 61.3439 68.0117 59.9102C68.1309 59.8595 68.2435 59.8118 68.3496 59.7666C68.2347 60.2042 68.0578 60.6314 67.79 61.0078C67.3767 61.5881 66.7764 62.0245 66.0703 62.3789C65.5402 62.645 64.9574 62.8616 64.3594 63.0576L63.7578 63.248L63.5391 63.3145C62.1806 63.7311 60.7447 64.1693 59.4482 64.9775C57.8072 66 56.6942 67.5024 56.4199 69.1133L56.1973 70.4238L56.1436 70.7363L56.4512 70.6582L57.7383 70.3291C58.4603 70.1444 59.2284 70.0996 60.0674 70.0518L60.9844 69.9922C61.2956 69.9671 61.6113 69.9351 61.9277 69.8877C62.6905 69.7735 63.8138 69.495 64.7891 68.8164C65.866 68.0666 66.5549 66.8681 66.6475 65.5938L66.6709 65.2656L66.3652 65.3867C66.1421 65.4755 65.8109 65.5926 65.4854 65.7031L64.6406 65.9824C64.4981 66.0283 64.3841 66.1152 64.2988 66.2217L64.2236 66.334C64.062 66.6181 63.8424 66.8697 63.5664 67.0615C63.141 67.3578 62.5571 67.5914 61.8975 67.7227L61.6104 67.7725C61.0782 67.8525 60.5337 67.8832 59.9453 67.917C59.7142 67.9302 59.4792 67.9451 59.2422 67.9619C59.5849 67.531 60.0361 67.1315 60.5791 66.793C61.631 66.1375 62.8462 65.764 64.166 65.3594H64.165L64.3857 65.292C66.2777 64.7105 68.2947 63.9858 69.5322 62.2471C70.2203 61.2811 70.5982 60.0427 70.6621 58.6406C71.847 57.8834 72.7316 56.9351 73.2246 55.8555C74.1109 53.914 73.7304 51.8051 73.2881 49.876L73.2354 49.6494C72.9259 48.3051 72.6423 47.0668 72.6836 45.8291C72.7053 45.1901 72.8268 44.6001 73.0283 44.0879C73.1321 44.3012 73.2369 44.5116 73.3408 44.7178C73.606 45.2442 73.8509 45.7314 74.0479 46.2324C74.4006 47.1294 74.5027 47.9806 74.3584 48.6318V48.6328C74.3121 48.8399 74.2281 49.0429 74.1143 49.2334C74.0228 49.386 73.9761 49.5719 74.0166 49.7646V49.7656C74.1057 50.1818 74.2999 51.1152 74.3691 51.6113L74.4248 52.0078L74.7158 51.7334L75.2041 51.2705L75.4277 51.043C75.9294 50.4924 76.2872 49.8121 76.4463 49.0957C76.7539 47.7096 76.3887 46.341 76.0381 45.4492C75.8037 44.8539 75.5204 44.2908 75.251 43.7559C74.8732 43.0056 74.5275 42.3184 74.3262 41.6006L73.9678 40.3213L73.8818 40.0156L73.6377 40.2188L72.6143 41.0664C71.3566 42.1093 70.6123 43.8244 70.5469 45.7568C70.4956 47.2831 70.8337 48.7451 71.1523 50.1289L71.2031 50.3535C71.3915 51.1748 71.5614 52.0024 71.6074 52.792C71.6534 53.5808 71.5754 54.3186 71.2793 54.9668C70.7958 56.0269 69.7495 56.751 68.9316 57.1768C68.7457 57.2734 68.0615 57.5656 67.1738 57.9434C63.6138 59.46 55.4265 62.9504 50.3945 66.3057C45.3589 62.9725 37.3644 59.5607 33.7227 58.0098L33.4375 57.8896L33.4355 58.1982L33.4287 58.9248C33.4223 59.698 33.8779 60.4012 34.5889 60.707L36.4297 61.5078C41.005 63.5219 47.3187 66.4953 50.7705 69.1885C51.3854 69.6693 52.029 70.3548 52.4863 71.1475C52.9437 71.9403 53.207 72.8274 53.0859 73.7207C53.0015 74.3228 52.6603 74.9006 52.1758 75.335C51.6911 75.7694 51.0778 76.0474 50.4697 76.0684H50.4619L50.418 76.0732C49.7195 76.0421 49.0216 75.6872 48.5215 75.1602L48.5205 75.1592C48.1752 74.7998 47.9294 74.3703 47.8242 73.916L47.7881 73.7207C47.7018 73.0964 47.8026 72.4154 48.0889 71.7314L48.2324 71.4229C48.252 71.3837 48.2741 71.3457 48.2949 71.3066C48.7317 71.6054 49.2387 72.0259 49.5488 72.5283L49.5547 72.5381L49.5625 72.5479C49.5747 72.5634 49.5813 72.5761 49.585 72.585L49.5898 72.5977L49.5977 72.6104C49.6907 72.7706 49.7583 72.9425 49.8057 73.127C49.8872 73.444 49.848 73.8038 49.7129 74.1123L49.6494 74.2412C49.6175 74.299 49.5807 74.355 49.541 74.4082L49.4248 74.5645L49.5742 74.6895C49.7685 74.8512 49.9981 74.9713 50.2568 75.0254L50.2705 75.0283L50.2744 75.0293C51.0876 75.2106 51.8786 74.6823 51.9707 73.8408V73.8398C52.1427 72.2566 51.2625 71.0319 50.3564 70.2109C49.4488 69.3886 48.4804 68.9394 48.3877 68.8975L48.3887 68.8965L47.7549 68.6084L47.6035 68.54L47.5049 68.6738L47.0908 69.2314V69.2305C45.9663 70.726 45.449 72.4246 45.6709 74.0137C45.979 76.2842 48.0377 78.1222 50.3838 78.2061H50.5195Z" fill="white" stroke="white" stroke-width="0.4125"/>
<path d="M68.6191 56.1045L69.2529 55.7461C69.9256 55.3653 70.3065 54.6192 70.2158 53.8506C69.6358 48.9269 68.777 40.5517 69.4697 35.5967L69.5186 35.3018C69.6497 34.6006 69.9078 33.8244 70.3086 33.1309C70.7667 32.3382 71.4037 31.6667 72.2383 31.3252H72.2373C72.8007 31.0971 73.4724 31.1042 74.0908 31.3066C74.7092 31.5091 75.256 31.9011 75.5781 32.417L75.582 32.4238L75.5869 32.4297L75.6055 32.4561C75.9295 33.077 75.9726 33.8602 75.7656 34.5576V34.5596C75.6075 35.1065 75.3046 35.5866 74.8857 35.9131V35.9141C74.3879 36.3008 73.7476 36.5537 73.0127 36.6475V36.6465C72.859 36.6643 72.7036 36.6752 72.5449 36.6807C72.5797 36.2291 72.6631 35.688 72.8633 35.2158L72.9736 34.9854L72.9795 34.9746L72.9834 34.9629C72.991 34.9435 72.9984 34.9326 73.0029 34.9268L73.0117 34.915L73.0195 34.9014C73.1118 34.7408 73.227 34.5958 73.3633 34.4619L73.4688 34.3691C73.7283 34.1644 74.0717 34.0469 74.4053 34.041C74.4718 34.0399 74.5388 34.0428 74.6045 34.0508L74.7988 34.0752L74.832 33.8818C74.8755 33.6316 74.8628 33.3723 74.7803 33.1211L74.7764 33.1064V33.1055C74.5264 32.3103 73.6735 31.8899 72.8984 32.2314C71.441 32.8739 70.8205 34.2491 70.5625 35.4443C70.3039 36.6423 70.3981 37.7063 70.4082 37.8066L70.4746 38.498L70.4912 38.6641L70.6562 38.6826L71.3467 38.7627C73.2033 38.9884 74.9332 38.5872 76.1982 37.6006H76.1973C78.01 36.1989 78.573 33.497 77.4727 31.4229L77.4697 31.416L77.4092 31.3115L77.4053 31.3047L77.4043 31.3057C76.1717 29.3395 73.5538 28.482 71.4316 29.3457C68.9578 30.3529 67.7392 32.9504 67.3877 35.0859C62.2522 32.3978 55.7378 27.5017 52.8135 25.3037C52.71 25.2259 52.6118 25.1533 52.5195 25.084C52.9564 24.9644 53.4148 24.9035 53.875 24.9473C54.5841 25.0148 55.2627 25.3165 55.9229 25.751C56.5832 26.1857 57.2141 26.7458 57.8311 27.3193L57.999 27.4756L58.793 28.207C59.6032 28.9371 60.4734 29.6477 61.4844 30.1865C63.1903 31.0965 65.0482 31.3092 66.5801 30.7412L67.8262 30.2793L68.124 30.1689L67.9023 29.9414L66.9736 28.9922C66.4524 28.4587 66.0301 27.8156 65.5693 27.1133C65.2406 26.6123 64.8945 26.0857 64.4961 25.585C64.0157 24.9815 63.2141 24.1476 62.1387 23.6426C60.9511 23.0843 59.5677 23.0878 58.418 23.6445L58.1221 23.7871L58.3799 23.9912C58.7565 24.2891 59.4464 24.9069 59.7588 25.1885C59.9063 25.3214 60.0915 25.3741 60.2705 25.373C60.5977 25.371 60.9255 25.4355 61.2295 25.5781C61.7662 25.8303 62.3346 26.3027 62.8232 26.917C63.1585 27.3378 63.4583 27.7935 63.7812 28.2861C63.9082 28.4797 64.0379 28.6764 64.1709 28.873C63.6264 28.7916 63.0546 28.601 62.4902 28.2998C61.3971 27.7168 60.4663 26.8516 59.4561 25.9111L59.2881 25.7539C57.8384 24.4059 56.202 23.0207 54.0771 22.8184C52.8966 22.7061 51.6349 22.9987 50.3887 23.6445C49.1406 22.9974 47.8775 22.7046 46.6963 22.8174C44.5715 23.0202 42.936 24.4049 41.4863 25.7529L41.3164 25.9111H41.3154C40.3064 26.8513 39.3762 27.7153 38.2842 28.2979C37.7189 28.599 37.1465 28.7897 36.6016 28.8711C36.7346 28.6744 36.8654 28.4789 36.9922 28.2852L37.4668 27.5732C37.624 27.3451 37.7826 27.1255 37.9502 26.915C38.5498 26.1616 39.2365 25.6482 39.8721 25.4473C40.0243 25.3996 40.1859 25.3709 40.3506 25.3613L40.5166 25.3574L40.6504 25.3486C40.7837 25.329 40.9152 25.2758 41.0254 25.1768C41.3418 24.8915 42.0532 24.2557 42.4482 23.9482L42.7646 23.7021L42.3809 23.5879L41.7354 23.3955C40.9196 23.152 40.0311 23.1552 39.2314 23.4072C37.8773 23.8335 36.8745 24.8342 36.2773 25.584C35.8789 26.0843 35.5327 26.612 35.2041 27.1123C34.7434 27.8145 34.3209 28.4568 33.7998 28.9902L32.8721 29.9414L32.6504 30.168L32.9482 30.2783L34.1934 30.7402C35.7253 31.3079 37.5835 31.0952 39.29 30.1855C40.6372 29.4666 41.733 28.4431 42.7725 27.4756H42.7734L42.9424 27.3184C43.5595 26.7447 44.1909 26.1838 44.8516 25.749C45.5116 25.3147 46.1899 25.0139 46.8994 24.9463C48.0592 24.8354 49.209 25.379 49.9863 25.874C50.1628 25.9864 50.758 26.4336 51.5293 27.0137C54.6218 29.3381 61.7341 34.6814 67.1553 37.3623C66.7882 43.3893 67.8361 52.0213 68.3135 55.9492L68.3506 56.2568L68.6191 56.1045Z" fill="white" stroke="white" stroke-width="0.4125"/>
</svg>
