<svg width="400" height="400" viewBox="0 0 400 400" fill="none" xmlns="http://www.w3.org/2000/svg">
<g clip-path="url(#clip0_122_12)">
<mask id="path-1-inside-1_122_12" fill="white">
<path d="M409.5 372H292.856L201.805 263.231H100.419V372H0.508549V27.4825H242.163C330.261 27.4825 398.672 66.3638 398.672 145.111C398.672 202.694 362.252 239.115 308.113 254.864L409.5 372ZM99.9265 190.39H234.78C270.709 190.39 296.794 180.547 296.794 147.079C296.794 113.612 270.709 103.769 234.78 103.769H99.9265V190.39Z"/>
</mask>
<g filter="url(#filter0_i_122_12)">
<path d="M409.5 372H292.856L201.805 263.231H100.419V372H0.508549V27.4825H242.163C330.261 27.4825 398.672 66.3638 398.672 145.111C398.672 202.694 362.252 239.115 308.113 254.864L409.5 372ZM99.9265 190.39H234.78C270.709 190.39 296.794 180.547 296.794 147.079C296.794 113.612 270.709 103.769 234.78 103.769H99.9265V190.39Z" fill="url(#paint0_linear_122_12)"/>
</g>
<path d="M409.5 372V376.101H418.474L412.601 369.316L409.5 372ZM292.856 372L289.711 374.633L290.941 376.101H292.856V372ZM201.805 263.231L204.95 260.598L203.721 259.13H201.805V263.231ZM100.419 263.231V259.13H96.3172V263.231H100.419ZM100.419 372V376.101H104.52V372H100.419ZM0.508549 372H-3.59285V376.101H0.508549V372ZM0.508549 27.4825V23.3811H-3.59285V27.4825H0.508549ZM308.113 254.864L306.968 250.926L300.827 252.712L305.012 257.548L308.113 254.864ZM99.9265 190.39H95.8251V194.491H99.9265V190.39ZM99.9265 103.769V99.6671H95.8251V103.769H99.9265ZM409.5 372V367.899H292.856V372V376.101H409.5V372ZM292.856 372L296.001 369.367L204.95 260.598L201.805 263.231L198.66 265.864L289.711 374.633L292.856 372ZM201.805 263.231V259.13H100.419V263.231V267.332H201.805V263.231ZM100.419 263.231H96.3172V372H100.419H104.52V263.231H100.419ZM100.419 372V367.899H0.508549V372V376.101H100.419V372ZM0.508549 372H4.60995V27.4825H0.508549H-3.59285V372H0.508549ZM0.508549 27.4825V31.5839H242.163V27.4825V23.3811H0.508549V27.4825ZM242.163 27.4825V31.5839C285.685 31.5839 323.902 41.199 351.112 60.133C378.152 78.9489 394.571 107.112 394.571 145.111H398.672H402.774C402.774 104.362 384.987 73.7114 355.797 53.3999C326.777 33.2066 286.739 23.3811 242.163 23.3811V27.4825ZM398.672 145.111H394.571C394.571 172.973 385.785 195.503 370.599 212.985C355.365 230.522 333.482 243.213 306.968 250.926L308.113 254.864L309.259 258.802C336.883 250.766 360.28 237.372 376.791 218.365C393.349 199.303 402.774 174.832 402.774 145.111H398.672ZM308.113 254.864L305.012 257.548L406.399 374.684L409.5 372L412.601 369.316L311.215 252.18L308.113 254.864ZM99.9265 190.39V194.491H234.78V190.39V186.289H99.9265V190.39ZM234.78 190.39V194.491C252.966 194.491 269.391 192.029 281.379 184.797C293.745 177.336 300.895 165.1 300.895 147.079H296.794H292.692C292.692 162.526 286.8 171.946 277.141 177.773C267.104 183.829 252.524 186.289 234.78 186.289V190.39ZM296.794 147.079H300.895C300.895 129.058 293.745 116.823 281.379 109.362C269.391 102.129 252.966 99.6671 234.78 99.6671V103.769V107.87C252.524 107.87 267.104 110.33 277.141 116.385C286.8 122.213 292.692 131.633 292.692 147.079H296.794ZM234.78 103.769V99.6671H99.9265V103.769V107.87H234.78V103.769ZM99.9265 103.769H95.8251V190.39H99.9265H104.028V103.769H99.9265Z" fill="white" mask="url(#path-1-inside-1_122_12)"/>
</g>
<defs>
<filter id="filter0_i_122_12" x="0.508789" y="27.4825" width="408.991" height="426.545" filterUnits="userSpaceOnUse" color-interpolation-filters="sRGB">
<feFlood flood-opacity="0" result="BackgroundImageFix"/>
<feBlend mode="normal" in="SourceGraphic" in2="BackgroundImageFix" result="shape"/>
<feColorMatrix in="SourceAlpha" type="matrix" values="0 0 0 0 0 0 0 0 0 0 0 0 0 0 0 0 0 0 127 0" result="hardAlpha"/>
<feOffset dy="82.028"/>
<feGaussianBlur stdDeviation="41.014"/>
<feComposite in2="hardAlpha" operator="arithmetic" k2="-1" k3="1"/>
<feColorMatrix type="matrix" values="0 0 0 0 0.509804 0 0 0 0 0.615686 0 0 0 0 0.945098 0 0 0 0.24 0"/>
<feBlend mode="normal" in2="shape" result="effect1_innerShadow_122_12"/>
</filter>
<linearGradient id="paint0_linear_122_12" x1="192.004" y1="27.0001" x2="192.005" y2="562.102" gradientUnits="userSpaceOnUse">
<stop stop-color="#E3EAFC"/>
<stop offset="1" stop-color="#6C8CEF"/>
</linearGradient>
<clipPath id="clip0_122_12">
<rect width="400" height="400" fill="white"/>
</clipPath>
</defs>
</svg>
