<svg width="59" height="17" viewBox="0 0 59 17" fill="none" xmlns="http://www.w3.org/2000/svg">
<path d="M19.9438 16.8H14.2558L9.81582 11.496H4.87182V16.8H-0.00018537V4.76837e-05H11.7838C16.0798 4.76837e-05 19.4158 1.89605 19.4158 5.73605C19.4158 8.54405 17.6398 10.32 14.9998 11.088L19.9438 16.8ZM4.84781 7.94405H11.4238C13.1758 7.94405 14.4478 7.46405 14.4478 5.83205C14.4478 4.20005 13.1758 3.72005 11.4238 3.72005H4.84781V7.94405ZM36.8083 16.8L35.2243 13.584H26.0083L24.4243 16.8H19.2883L27.9763 4.76837e-05H33.3283L42.0163 16.8H36.8083ZM27.6883 10.104H33.5203L30.6163 4.15205L27.6883 10.104ZM38.1799 4.76837e-05H43.6519L48.5479 7.24805L53.4199 4.76837e-05H58.8679L50.9719 11.136V16.8H46.0759V11.136L38.1799 4.76837e-05Z" fill="url(#paint0_linear_91_12)"/>
<defs>
<linearGradient id="paint0_linear_91_12" x1="28.3267" y1="-0.199946" x2="28.3267" y2="26.1674" gradientUnits="userSpaceOnUse">
<stop stop-color="#E3EAFC"/>
<stop offset="1" stop-color="#6C8CEF"/>
</linearGradient>
</defs>
</svg>
